<svg width="418" height="396" viewBox="0 0 418 396" fill="none" xmlns="http://www.w3.org/2000/svg">
<g filter="url(#filter0_d_9_10162)">
<rect x="34" y="20" width="350" height="328" rx="20" fill="white"/>
</g>
<rect x="275" y="298" width="89" height="30" rx="5" fill="#00E0C7"/>
<path d="M297.012 308.598L294.117 317H291.973L289.113 308.598H291.152L292.904 314.445C292.998 314.762 293.055 315.041 293.074 315.283H293.109C293.137 315.021 293.197 314.734 293.291 314.422L295.031 308.598H297.012ZM298.775 310.051C298.463 310.051 298.207 309.959 298.008 309.775C297.809 309.588 297.709 309.359 297.709 309.09C297.709 308.812 297.809 308.586 298.008 308.41C298.207 308.234 298.463 308.146 298.775 308.146C299.092 308.146 299.348 308.234 299.543 308.41C299.742 308.586 299.842 308.812 299.842 309.09C299.842 309.371 299.742 309.602 299.543 309.781C299.348 309.961 299.092 310.051 298.775 310.051ZM299.689 317H297.838V311H299.689V317ZM306.639 314.527H302.725C302.787 315.398 303.336 315.834 304.371 315.834C305.031 315.834 305.611 315.678 306.111 315.365V316.701C305.557 316.998 304.836 317.146 303.949 317.146C302.98 317.146 302.229 316.879 301.693 316.344C301.158 315.805 300.891 315.055 300.891 314.094C300.891 313.098 301.18 312.309 301.758 311.727C302.336 311.145 303.047 310.854 303.891 310.854C304.766 310.854 305.441 311.113 305.918 311.633C306.398 312.152 306.639 312.857 306.639 313.748V314.527ZM304.922 313.391C304.922 312.531 304.574 312.102 303.879 312.102C303.582 312.102 303.324 312.225 303.105 312.471C302.891 312.717 302.76 313.023 302.713 313.391H304.922ZM316.43 311L314.701 317H312.756L311.871 313.484C311.812 313.25 311.779 312.994 311.771 312.717H311.736C311.709 313.021 311.67 313.27 311.619 313.461L310.67 317H308.748L307.055 311H308.941L309.768 314.914C309.807 315.098 309.836 315.32 309.855 315.582H309.891C309.91 315.309 309.945 315.078 309.996 314.891L311.027 311H312.791L313.717 314.914C313.74 315.012 313.768 315.238 313.799 315.594H313.84C313.859 315.367 313.891 315.141 313.934 314.914L314.713 311H316.43ZM330.387 317H328.518V311.973C328.518 311.43 328.541 310.83 328.588 310.174H328.541C328.443 310.689 328.355 311.061 328.277 311.287L326.309 317H324.762L322.758 311.346C322.703 311.193 322.615 310.803 322.494 310.174H322.441C322.492 311.002 322.518 311.729 322.518 312.354V317H320.812V308.598H323.584L325.301 313.578C325.438 313.977 325.537 314.377 325.6 314.779H325.635C325.74 314.314 325.852 313.91 325.969 313.566L327.686 308.598H330.387V317ZM334.975 317.146C333.975 317.146 333.188 316.867 332.613 316.309C332.043 315.746 331.758 314.984 331.758 314.023C331.758 313.031 332.055 312.256 332.648 311.697C333.242 311.135 334.045 310.854 335.057 310.854C336.053 310.854 336.834 311.135 337.4 311.697C337.967 312.256 338.25 312.996 338.25 313.918C338.25 314.914 337.957 315.701 337.371 316.279C336.789 316.857 335.99 317.146 334.975 317.146ZM335.021 312.271C334.584 312.271 334.244 312.422 334.002 312.723C333.76 313.023 333.639 313.449 333.639 314C333.639 315.152 334.104 315.729 335.033 315.729C335.92 315.729 336.363 315.137 336.363 313.953C336.363 312.832 335.916 312.271 335.021 312.271ZM343.365 312.67C343.143 312.549 342.883 312.488 342.586 312.488C342.184 312.488 341.869 312.637 341.643 312.934C341.416 313.227 341.303 313.627 341.303 314.135V317H339.451V311H341.303V312.113H341.326C341.619 311.301 342.146 310.895 342.908 310.895C343.104 310.895 343.256 310.918 343.365 310.965V312.67ZM349.623 314.527H345.709C345.771 315.398 346.32 315.834 347.355 315.834C348.016 315.834 348.596 315.678 349.096 315.365V316.701C348.541 316.998 347.82 317.146 346.934 317.146C345.965 317.146 345.213 316.879 344.678 316.344C344.143 315.805 343.875 315.055 343.875 314.094C343.875 313.098 344.164 312.309 344.742 311.727C345.32 311.145 346.031 310.854 346.875 310.854C347.75 310.854 348.426 311.113 348.902 311.633C349.383 312.152 349.623 312.857 349.623 313.748V314.527ZM347.906 313.391C347.906 312.531 347.559 312.102 346.863 312.102C346.566 312.102 346.309 312.225 346.09 312.471C345.875 312.717 345.744 313.023 345.697 313.391H347.906Z" fill="#2A3950"/>
<rect x="54.5" y="298.5" width="88" height="29" rx="4.5" stroke="#006270"/>
<path d="M70.1016 317V308.598H72.4922C73.2188 308.598 73.7949 308.775 74.2207 309.131C74.6465 309.486 74.8594 309.949 74.8594 310.52C74.8594 310.996 74.7305 311.41 74.4727 311.762C74.2148 312.113 73.8594 312.363 73.4062 312.512V312.535C73.9727 312.602 74.4258 312.816 74.7656 313.18C75.1055 313.539 75.2754 314.008 75.2754 314.586C75.2754 315.305 75.0176 315.887 74.502 316.332C73.9863 316.777 73.3359 317 72.5508 317H70.1016ZM71.0859 309.488V312.201H72.0938C72.6328 312.201 73.0566 312.072 73.3652 311.814C73.6738 311.553 73.8281 311.186 73.8281 310.713C73.8281 309.896 73.291 309.488 72.2168 309.488H71.0859ZM71.0859 313.086V316.109H72.4219C73 316.109 73.4473 315.973 73.7637 315.699C74.084 315.426 74.2441 315.051 74.2441 314.574C74.2441 313.582 73.5684 313.086 72.2168 313.086H71.0859ZM80.3672 317.141C79.1758 317.141 78.2207 316.748 77.502 315.963C76.7871 315.178 76.4297 314.156 76.4297 312.898C76.4297 311.547 76.7949 310.469 77.5254 309.664C78.2559 308.859 79.25 308.457 80.5078 308.457C81.668 308.457 82.6016 308.848 83.3086 309.629C84.0195 310.41 84.375 311.432 84.375 312.693C84.375 314.064 84.0117 315.148 83.2852 315.945C82.5586 316.742 81.5859 317.141 80.3672 317.141ZM80.4375 309.348C79.5547 309.348 78.8379 309.666 78.2871 310.303C77.7363 310.939 77.4609 311.775 77.4609 312.811C77.4609 313.846 77.7285 314.68 78.2637 315.312C78.8027 315.941 79.5039 316.256 80.3672 316.256C81.2891 316.256 82.0156 315.955 82.5469 315.354C83.0781 314.752 83.3438 313.91 83.3438 312.828C83.3438 311.719 83.0859 310.861 82.5703 310.256C82.0547 309.65 81.3438 309.348 80.4375 309.348ZM89.4141 317.141C88.2227 317.141 87.2676 316.748 86.5488 315.963C85.834 315.178 85.4766 314.156 85.4766 312.898C85.4766 311.547 85.8418 310.469 86.5723 309.664C87.3027 308.859 88.2969 308.457 89.5547 308.457C90.7148 308.457 91.6484 308.848 92.3555 309.629C93.0664 310.41 93.4219 311.432 93.4219 312.693C93.4219 314.064 93.0586 315.148 92.332 315.945C91.6055 316.742 90.6328 317.141 89.4141 317.141ZM89.4844 309.348C88.6016 309.348 87.8848 309.666 87.334 310.303C86.7832 310.939 86.5078 311.775 86.5078 312.811C86.5078 313.846 86.7754 314.68 87.3105 315.312C87.8496 315.941 88.5508 316.256 89.4141 316.256C90.3359 316.256 91.0625 315.955 91.5938 315.354C92.125 314.752 92.3906 313.91 92.3906 312.828C92.3906 311.719 92.1328 310.861 91.6172 310.256C91.1016 309.65 90.3906 309.348 89.4844 309.348ZM100.922 317H99.5508L96.3047 313.156C96.1836 313.012 96.1094 312.914 96.082 312.863H96.0586V317H95.0742V308.598H96.0586V312.547H96.082C96.1367 312.461 96.2109 312.365 96.3047 312.26L99.4453 308.598H100.67L97.0664 312.629L100.922 317ZM104.086 317.141C103.254 317.141 102.604 316.783 102.135 316.068C101.67 315.354 101.438 314.32 101.438 312.969C101.438 311.484 101.68 310.361 102.164 309.6C102.652 308.838 103.355 308.457 104.273 308.457C106.031 308.457 106.91 309.893 106.91 312.764C106.91 314.186 106.662 315.271 106.166 316.021C105.67 316.768 104.977 317.141 104.086 317.141ZM104.221 309.271C103.021 309.271 102.422 310.488 102.422 312.922C102.422 315.195 103.01 316.332 104.186 316.332C105.346 316.332 105.926 315.176 105.926 312.863C105.926 310.469 105.357 309.271 104.221 309.271ZM108.363 316.795V315.775C108.938 316.146 109.521 316.332 110.115 316.332C110.709 316.332 111.188 316.164 111.551 315.828C111.914 315.492 112.096 315.047 112.096 314.492C112.096 313.941 111.91 313.512 111.539 313.203C111.168 312.895 110.637 312.74 109.945 312.74C109.711 312.74 109.271 312.764 108.627 312.811V308.598H112.693V309.465H109.535V311.926C109.793 311.91 110.031 311.902 110.25 311.902C111.148 311.902 111.844 312.129 112.336 312.582C112.828 313.031 113.074 313.648 113.074 314.434C113.074 315.246 112.809 315.9 112.277 316.396C111.75 316.893 111.025 317.141 110.104 317.141C109.326 317.141 108.746 317.025 108.363 316.795ZM117.023 317.141C116.191 317.141 115.541 316.783 115.072 316.068C114.607 315.354 114.375 314.32 114.375 312.969C114.375 311.484 114.617 310.361 115.102 309.6C115.59 308.838 116.293 308.457 117.211 308.457C118.969 308.457 119.848 309.893 119.848 312.764C119.848 314.186 119.6 315.271 119.104 316.021C118.607 316.768 117.914 317.141 117.023 317.141ZM117.158 309.271C115.959 309.271 115.359 310.488 115.359 312.922C115.359 315.195 115.947 316.332 117.123 316.332C118.283 316.332 118.863 315.176 118.863 312.863C118.863 310.469 118.295 309.271 117.158 309.271ZM122.426 313.824V317H121.441V308.598H123.75C124.648 308.598 125.344 308.816 125.836 309.254C126.332 309.691 126.58 310.309 126.58 311.105C126.58 311.902 126.305 312.555 125.754 313.062C125.207 313.57 124.467 313.824 123.533 313.824H122.426ZM122.426 309.488V312.934H123.457C124.137 312.934 124.654 312.779 125.01 312.471C125.369 312.158 125.549 311.719 125.549 311.152C125.549 310.043 124.893 309.488 123.58 309.488H122.426Z" fill="#006270"/>
<path d="M64.8721 278.902C64.8721 282.441 63.2754 284.211 60.082 284.211C57.0234 284.211 55.4941 282.509 55.4941 279.104V271.396H56.9707V279.008C56.9707 281.592 58.0605 282.884 60.2402 282.884C62.3438 282.884 63.3955 281.636 63.3955 279.14V271.396H64.8721V278.902ZM69.3105 282.699H69.2754V288.14H67.834V275H69.2754V276.582H69.3105C70.0195 275.387 71.0566 274.789 72.4219 274.789C73.582 274.789 74.4873 275.193 75.1377 276.002C75.7881 276.805 76.1133 277.883 76.1133 279.236C76.1133 280.742 75.7471 281.949 75.0146 282.857C74.2822 283.76 73.2803 284.211 72.0088 284.211C70.8428 284.211 69.9434 283.707 69.3105 282.699ZM69.2754 279.069V280.326C69.2754 281.07 69.5156 281.703 69.9961 282.225C70.4824 282.74 71.0977 282.998 71.8418 282.998C72.7148 282.998 73.3975 282.664 73.8896 281.996C74.3877 281.328 74.6367 280.399 74.6367 279.21C74.6367 278.208 74.4053 277.423 73.9424 276.854C73.4795 276.286 72.8525 276.002 72.0615 276.002C71.2236 276.002 70.5498 276.295 70.04 276.881C69.5303 277.461 69.2754 278.19 69.2754 279.069ZM82.5908 283.912C82.251 284.1 81.8027 284.193 81.2461 284.193C79.6699 284.193 78.8818 283.314 78.8818 281.557V276.23H77.335V275H78.8818V272.803L80.3232 272.337V275H82.5908V276.23H80.3232V281.302C80.3232 281.905 80.4258 282.336 80.6309 282.594C80.8359 282.852 81.1758 282.98 81.6504 282.98C82.0137 282.98 82.3271 282.881 82.5908 282.682V283.912ZM88.2773 284.211C86.9473 284.211 85.8838 283.792 85.0869 282.954C84.2959 282.11 83.9004 280.994 83.9004 279.605C83.9004 278.094 84.3135 276.913 85.1396 276.063C85.9658 275.214 87.082 274.789 88.4883 274.789C89.8301 274.789 90.876 275.202 91.626 276.028C92.3818 276.854 92.7598 278 92.7598 279.465C92.7598 280.9 92.3525 282.052 91.5381 282.919C90.7295 283.78 89.6426 284.211 88.2773 284.211ZM88.3828 276.002C87.457 276.002 86.7246 276.318 86.1855 276.951C85.6465 277.578 85.377 278.445 85.377 279.553C85.377 280.619 85.6494 281.46 86.1943 282.075C86.7393 282.69 87.4688 282.998 88.3828 282.998C89.3145 282.998 90.0293 282.696 90.5273 282.093C91.0312 281.489 91.2832 280.631 91.2832 279.518C91.2832 278.393 91.0312 277.525 90.5273 276.916C90.0293 276.307 89.3145 276.002 88.3828 276.002ZM99.9844 283.692V282.163C100.846 282.72 101.722 282.998 102.612 282.998C103.503 282.998 104.221 282.746 104.766 282.242C105.311 281.738 105.583 281.07 105.583 280.238C105.583 279.412 105.305 278.768 104.748 278.305C104.191 277.842 103.395 277.61 102.357 277.61C102.006 277.61 101.347 277.646 100.38 277.716V271.396H106.479V272.697H101.742V276.389C102.129 276.365 102.486 276.354 102.814 276.354C104.162 276.354 105.205 276.693 105.943 277.373C106.682 278.047 107.051 278.973 107.051 280.15C107.051 281.369 106.652 282.351 105.855 283.095C105.064 283.839 103.978 284.211 102.595 284.211C101.429 284.211 100.559 284.038 99.9844 283.692ZM112.975 284.211C111.727 284.211 110.751 283.675 110.048 282.603C109.351 281.53 109.002 279.98 109.002 277.953C109.002 275.727 109.365 274.042 110.092 272.899C110.824 271.757 111.879 271.186 113.256 271.186C115.893 271.186 117.211 273.339 117.211 277.646C117.211 279.778 116.839 281.407 116.095 282.532C115.351 283.651 114.311 284.211 112.975 284.211ZM113.177 272.407C111.378 272.407 110.479 274.232 110.479 277.883C110.479 281.293 111.36 282.998 113.124 282.998C114.864 282.998 115.734 281.264 115.734 277.795C115.734 274.203 114.882 272.407 113.177 272.407ZM121.5 277.716C120.633 277.716 119.941 277.432 119.426 276.863C118.91 276.289 118.652 275.524 118.652 274.569C118.652 273.526 118.925 272.706 119.47 272.108C120.015 271.505 120.75 271.203 121.676 271.203C122.572 271.203 123.267 271.481 123.759 272.038C124.257 272.595 124.506 273.377 124.506 274.385C124.506 275.393 124.228 276.201 123.671 276.811C123.12 277.414 122.396 277.716 121.5 277.716ZM121.623 272.17C121.066 272.17 120.627 272.378 120.305 272.794C119.982 273.204 119.821 273.77 119.821 274.49C119.821 275.199 119.979 275.753 120.296 276.151C120.612 276.544 121.043 276.74 121.588 276.74C122.139 276.74 122.569 276.535 122.88 276.125C123.19 275.715 123.346 275.146 123.346 274.42C123.346 273.711 123.19 273.16 122.88 272.768C122.575 272.369 122.156 272.17 121.623 272.17ZM129.938 271.396L121.852 284.088H120.595L128.672 271.396H129.938ZM129.006 284.193C128.139 284.193 127.447 283.906 126.932 283.332C126.416 282.758 126.158 281.996 126.158 281.047C126.158 280.004 126.434 279.181 126.984 278.577C127.535 277.968 128.268 277.663 129.182 277.663C130.072 277.663 130.767 277.944 131.265 278.507C131.763 279.069 132.012 279.857 132.012 280.871C132.012 281.873 131.733 282.679 131.177 283.288C130.626 283.892 129.902 284.193 129.006 284.193ZM129.129 278.656C128.566 278.656 128.124 278.861 127.802 279.271C127.485 279.682 127.327 280.25 127.327 280.977C127.327 281.674 127.485 282.222 127.802 282.62C128.118 283.013 128.549 283.209 129.094 283.209C129.645 283.209 130.075 283.004 130.386 282.594C130.696 282.178 130.852 281.609 130.852 280.889C130.852 280.174 130.696 279.623 130.386 279.236C130.081 278.85 129.662 278.656 129.129 278.656ZM142.84 284.211C141.51 284.211 140.446 283.792 139.649 282.954C138.858 282.11 138.463 280.994 138.463 279.605C138.463 278.094 138.876 276.913 139.702 276.063C140.528 275.214 141.645 274.789 143.051 274.789C144.393 274.789 145.438 275.202 146.188 276.028C146.944 276.854 147.322 278 147.322 279.465C147.322 280.9 146.915 282.052 146.101 282.919C145.292 283.78 144.205 284.211 142.84 284.211ZM142.945 276.002C142.02 276.002 141.287 276.318 140.748 276.951C140.209 277.578 139.939 278.445 139.939 279.553C139.939 280.619 140.212 281.46 140.757 282.075C141.302 282.69 142.031 282.998 142.945 282.998C143.877 282.998 144.592 282.696 145.09 282.093C145.594 281.489 145.846 280.631 145.846 279.518C145.846 278.393 145.594 277.525 145.09 276.916C144.592 276.307 143.877 276.002 142.945 276.002ZM154.072 271.941C153.791 271.783 153.472 271.704 153.114 271.704C152.106 271.704 151.603 272.34 151.603 273.611V275H153.712V276.23H151.603V284H150.17V276.23H148.632V275H150.17V273.541C150.17 272.598 150.442 271.854 150.987 271.309C151.532 270.758 152.212 270.482 153.026 270.482C153.466 270.482 153.814 270.535 154.072 270.641V271.941ZM159.715 271.941C159.434 271.783 159.114 271.704 158.757 271.704C157.749 271.704 157.245 272.34 157.245 273.611V275H159.354V276.23H157.245V284H155.812V276.23H154.274V275H155.812V273.541C155.812 272.598 156.085 271.854 156.63 271.309C157.175 270.758 157.854 270.482 158.669 270.482C159.108 270.482 159.457 270.535 159.715 270.641V271.941ZM171.123 284.211C169.336 284.211 167.903 283.622 166.825 282.444C165.753 281.267 165.217 279.734 165.217 277.848C165.217 275.82 165.765 274.203 166.86 272.996C167.956 271.789 169.447 271.186 171.334 271.186C173.074 271.186 174.475 271.771 175.535 272.943C176.602 274.115 177.135 275.647 177.135 277.54C177.135 279.597 176.59 281.223 175.5 282.418C174.41 283.613 172.951 284.211 171.123 284.211ZM171.229 272.521C169.904 272.521 168.829 272.999 168.003 273.954C167.177 274.909 166.764 276.163 166.764 277.716C166.764 279.269 167.165 280.52 167.968 281.469C168.776 282.412 169.828 282.884 171.123 282.884C172.506 282.884 173.596 282.433 174.393 281.53C175.189 280.628 175.588 279.365 175.588 277.742C175.588 276.078 175.201 274.792 174.428 273.884C173.654 272.976 172.588 272.521 171.229 272.521ZM186.891 284H185.449V278.867C185.449 276.957 184.752 276.002 183.357 276.002C182.637 276.002 182.039 276.274 181.564 276.819C181.096 277.358 180.861 278.041 180.861 278.867V284H179.42V275H180.861V276.494H180.896C181.576 275.357 182.561 274.789 183.85 274.789C184.834 274.789 185.587 275.108 186.108 275.747C186.63 276.38 186.891 277.297 186.891 278.498V284ZM202.939 271.396L198.782 279.342V284H197.306V279.377L193.254 271.396H194.933L197.754 277.092C197.789 277.162 197.892 277.42 198.062 277.865H198.088C198.146 277.666 198.258 277.408 198.422 277.092L201.375 271.396H202.939ZM208.266 284.211C206.936 284.211 205.872 283.792 205.075 282.954C204.284 282.11 203.889 280.994 203.889 279.605C203.889 278.094 204.302 276.913 205.128 276.063C205.954 275.214 207.07 274.789 208.477 274.789C209.818 274.789 210.864 275.202 211.614 276.028C212.37 276.854 212.748 278 212.748 279.465C212.748 280.9 212.341 282.052 211.526 282.919C210.718 283.78 209.631 284.211 208.266 284.211ZM208.371 276.002C207.445 276.002 206.713 276.318 206.174 276.951C205.635 277.578 205.365 278.445 205.365 279.553C205.365 280.619 205.638 281.46 206.183 282.075C206.728 282.69 207.457 282.998 208.371 282.998C209.303 282.998 210.018 282.696 210.516 282.093C211.02 281.489 211.271 280.631 211.271 279.518C211.271 278.393 211.02 277.525 210.516 276.916C210.018 276.307 209.303 276.002 208.371 276.002ZM222.328 284H220.887V282.576H220.852C220.254 283.666 219.328 284.211 218.074 284.211C215.93 284.211 214.857 282.934 214.857 280.379V275H216.29V280.15C216.29 282.049 217.017 282.998 218.47 282.998C219.173 282.998 219.75 282.74 220.201 282.225C220.658 281.703 220.887 281.023 220.887 280.186V275H222.328V284ZM229.939 276.459C229.688 276.266 229.324 276.169 228.85 276.169C228.234 276.169 227.719 276.459 227.303 277.039C226.893 277.619 226.688 278.41 226.688 279.412V284H225.246V275H226.688V276.854H226.723C226.928 276.222 227.241 275.729 227.663 275.378C228.085 275.021 228.557 274.842 229.078 274.842C229.453 274.842 229.74 274.883 229.939 274.965V276.459ZM237.92 282.699H237.885V284H236.443V270.676H237.885V276.582H237.92C238.629 275.387 239.666 274.789 241.031 274.789C242.186 274.789 243.088 275.193 243.738 276.002C244.395 276.805 244.723 277.883 244.723 279.236C244.723 280.742 244.356 281.949 243.624 282.857C242.892 283.76 241.89 284.211 240.618 284.211C239.429 284.211 238.529 283.707 237.92 282.699ZM237.885 279.069V280.326C237.885 281.07 238.125 281.703 238.605 282.225C239.092 282.74 239.707 282.998 240.451 282.998C241.324 282.998 242.007 282.664 242.499 281.996C242.997 281.328 243.246 280.399 243.246 279.21C243.246 278.208 243.015 277.423 242.552 276.854C242.089 276.286 241.462 276.002 240.671 276.002C239.833 276.002 239.159 276.295 238.649 276.881C238.14 277.461 237.885 278.19 237.885 279.069ZM250.787 284.211C249.457 284.211 248.394 283.792 247.597 282.954C246.806 282.11 246.41 280.994 246.41 279.605C246.41 278.094 246.823 276.913 247.649 276.063C248.476 275.214 249.592 274.789 250.998 274.789C252.34 274.789 253.386 275.202 254.136 276.028C254.892 276.854 255.27 278 255.27 279.465C255.27 280.9 254.862 282.052 254.048 282.919C253.239 283.78 252.152 284.211 250.787 284.211ZM250.893 276.002C249.967 276.002 249.234 276.318 248.695 276.951C248.156 277.578 247.887 278.445 247.887 279.553C247.887 280.619 248.159 281.46 248.704 282.075C249.249 282.69 249.979 282.998 250.893 282.998C251.824 282.998 252.539 282.696 253.037 282.093C253.541 281.489 253.793 280.631 253.793 279.518C253.793 278.393 253.541 277.525 253.037 276.916C252.539 276.307 251.824 276.002 250.893 276.002ZM261.334 284.211C260.004 284.211 258.94 283.792 258.144 282.954C257.353 282.11 256.957 280.994 256.957 279.605C256.957 278.094 257.37 276.913 258.196 276.063C259.022 275.214 260.139 274.789 261.545 274.789C262.887 274.789 263.933 275.202 264.683 276.028C265.438 276.854 265.816 278 265.816 279.465C265.816 280.9 265.409 282.052 264.595 282.919C263.786 283.78 262.699 284.211 261.334 284.211ZM261.439 276.002C260.514 276.002 259.781 276.318 259.242 276.951C258.703 277.578 258.434 278.445 258.434 279.553C258.434 280.619 258.706 281.46 259.251 282.075C259.796 282.69 260.525 282.998 261.439 282.998C262.371 282.998 263.086 282.696 263.584 282.093C264.088 281.489 264.34 280.631 264.34 279.518C264.34 278.393 264.088 277.525 263.584 276.916C263.086 276.307 262.371 276.002 261.439 276.002ZM275.59 284H273.568L269.596 279.676H269.561V284H268.119V270.676H269.561V279.122H269.596L273.375 275H275.265L271.09 279.342L275.59 284ZM277.805 272.715C277.547 272.715 277.327 272.627 277.146 272.451C276.964 272.275 276.873 272.053 276.873 271.783C276.873 271.514 276.964 271.291 277.146 271.115C277.327 270.934 277.547 270.843 277.805 270.843C278.068 270.843 278.291 270.934 278.473 271.115C278.66 271.291 278.754 271.514 278.754 271.783C278.754 272.041 278.66 272.261 278.473 272.442C278.291 272.624 278.068 272.715 277.805 272.715ZM278.508 284H277.066V275H278.508V284ZM288.896 284H287.455V278.867C287.455 276.957 286.758 276.002 285.363 276.002C284.643 276.002 284.045 276.274 283.57 276.819C283.102 277.358 282.867 278.041 282.867 278.867V284H281.426V275H282.867V276.494H282.902C283.582 275.357 284.566 274.789 285.855 274.789C286.84 274.789 287.593 275.108 288.114 275.747C288.636 276.38 288.896 277.297 288.896 278.498V284ZM299.303 283.279C299.303 286.584 297.721 288.236 294.557 288.236C293.443 288.236 292.471 288.025 291.639 287.604V286.162C292.652 286.725 293.619 287.006 294.539 287.006C296.754 287.006 297.861 285.828 297.861 283.473V282.488H297.826C297.141 283.637 296.109 284.211 294.732 284.211C293.613 284.211 292.711 283.812 292.025 283.016C291.346 282.213 291.006 281.138 291.006 279.79C291.006 278.261 291.372 277.045 292.104 276.143C292.843 275.24 293.851 274.789 295.128 274.789C296.341 274.789 297.24 275.275 297.826 276.248H297.861V275H299.303V283.279ZM297.861 279.931V278.604C297.861 277.889 297.618 277.276 297.132 276.767C296.651 276.257 296.051 276.002 295.33 276.002C294.439 276.002 293.742 276.327 293.238 276.978C292.734 277.622 292.482 278.527 292.482 279.693C292.482 280.695 292.723 281.498 293.203 282.102C293.689 282.699 294.331 282.998 295.128 282.998C295.937 282.998 296.593 282.711 297.097 282.137C297.606 281.562 297.861 280.827 297.861 279.931ZM302.722 284.193C302.452 284.193 302.221 284.097 302.027 283.903C301.84 283.71 301.746 283.479 301.746 283.209C301.746 282.939 301.84 282.708 302.027 282.515C302.221 282.315 302.452 282.216 302.722 282.216C302.997 282.216 303.231 282.315 303.425 282.515C303.618 282.708 303.715 282.939 303.715 283.209C303.715 283.479 303.618 283.71 303.425 283.903C303.231 284.097 302.997 284.193 302.722 284.193ZM306.624 284.193C306.354 284.193 306.123 284.097 305.93 283.903C305.742 283.71 305.648 283.479 305.648 283.209C305.648 282.939 305.742 282.708 305.93 282.515C306.123 282.315 306.354 282.216 306.624 282.216C306.899 282.216 307.134 282.315 307.327 282.515C307.521 282.708 307.617 282.939 307.617 283.209C307.617 283.479 307.521 283.71 307.327 283.903C307.134 284.097 306.899 284.193 306.624 284.193ZM310.526 284.193C310.257 284.193 310.025 284.097 309.832 283.903C309.645 283.71 309.551 283.479 309.551 283.209C309.551 282.939 309.645 282.708 309.832 282.515C310.025 282.315 310.257 282.216 310.526 282.216C310.802 282.216 311.036 282.315 311.229 282.515C311.423 282.708 311.52 282.939 311.52 283.209C311.52 283.479 311.423 283.71 311.229 283.903C311.036 284.097 310.802 284.193 310.526 284.193Z" fill="#006270"/>
<path d="M67.793 254.297C66.5273 254.953 64.9531 255.281 63.0703 255.281C60.6328 255.281 58.6797 254.512 57.2109 252.973C55.7422 251.434 55.0078 249.414 55.0078 246.914C55.0078 244.227 55.832 242.055 57.4805 240.398C59.1367 238.742 61.2266 237.914 63.75 237.914C65.375 237.914 66.7227 238.145 67.793 238.605V241.371C66.6602 240.699 65.4102 240.363 64.043 240.363C62.2227 240.363 60.7461 240.945 59.6133 242.109C58.4883 243.273 57.9258 244.828 57.9258 246.773C57.9258 248.625 58.4531 250.102 59.5078 251.203C60.5625 252.297 61.9492 252.844 63.668 252.844C65.2539 252.844 66.6289 252.469 67.793 251.719V254.297ZM75.9961 255.281C74.1445 255.281 72.6641 254.723 71.5547 253.605C70.4531 252.48 69.9023 250.992 69.9023 249.141C69.9023 247.125 70.4766 245.551 71.625 244.418C72.7812 243.285 74.3359 242.719 76.2891 242.719C78.1641 242.719 79.625 243.27 80.6719 244.371C81.7188 245.473 82.2422 247 82.2422 248.953C82.2422 250.867 81.6758 252.402 80.543 253.559C79.418 254.707 77.9023 255.281 75.9961 255.281ZM76.125 244.887C75.0625 244.887 74.2227 245.258 73.6055 246C72.9883 246.742 72.6797 247.766 72.6797 249.07C72.6797 250.328 72.9922 251.32 73.6172 252.047C74.2422 252.766 75.0781 253.125 76.125 253.125C77.1953 253.125 78.0156 252.77 78.5859 252.059C79.1641 251.348 79.4531 250.336 79.4531 249.023C79.4531 247.703 79.1641 246.684 78.5859 245.965C78.0156 245.246 77.1953 244.887 76.125 244.887ZM95.707 255H92.9883V248.238C92.9883 245.996 92.1953 244.875 90.6094 244.875C89.7812 244.875 89.0977 245.188 88.5586 245.812C88.0195 246.43 87.75 247.211 87.75 248.156V255H85.0195V243H87.75V244.992H87.7969C88.6953 243.477 89.9922 242.719 91.6875 242.719C92.9922 242.719 93.9883 243.145 94.6758 243.996C95.3633 244.84 95.707 246.062 95.707 247.664V255ZM105.363 254.871C104.832 255.137 104.133 255.27 103.266 255.27C100.938 255.27 99.7734 254.152 99.7734 251.918V245.133H97.7695V243H99.7734V240.223L102.492 239.449V243H105.363V245.133H102.492V251.133C102.492 251.844 102.621 252.352 102.879 252.656C103.137 252.961 103.566 253.113 104.168 253.113C104.629 253.113 105.027 252.98 105.363 252.715V254.871ZM114.668 245.59C114.34 245.332 113.867 245.203 113.25 245.203C112.445 245.203 111.773 245.566 111.234 246.293C110.695 247.02 110.426 248.008 110.426 249.258V255H107.707V243H110.426V245.473H110.473C110.738 244.629 111.145 243.973 111.691 243.504C112.246 243.027 112.863 242.789 113.543 242.789C114.035 242.789 114.41 242.863 114.668 243.012V245.59ZM125.801 255H123.164V253.125H123.117C122.289 254.562 121.074 255.281 119.473 255.281C118.293 255.281 117.367 254.961 116.695 254.32C116.031 253.68 115.699 252.832 115.699 251.777C115.699 249.512 117.004 248.191 119.613 247.816L123.176 247.312C123.176 245.602 122.363 244.746 120.738 244.746C119.309 244.746 118.02 245.238 116.871 246.223V243.844C118.137 243.094 119.598 242.719 121.254 242.719C124.285 242.719 125.801 244.211 125.801 247.195V255ZM123.176 249.105L120.656 249.457C119.875 249.559 119.285 249.75 118.887 250.031C118.496 250.305 118.301 250.789 118.301 251.484C118.301 251.992 118.48 252.41 118.84 252.738C119.207 253.059 119.695 253.219 120.305 253.219C121.133 253.219 121.816 252.93 122.355 252.352C122.902 251.766 123.176 251.031 123.176 250.148V249.105ZM136.09 245.59C135.762 245.332 135.289 245.203 134.672 245.203C133.867 245.203 133.195 245.566 132.656 246.293C132.117 247.02 131.848 248.008 131.848 249.258V255H129.129V243H131.848V245.473H131.895C132.16 244.629 132.566 243.973 133.113 243.504C133.668 243.027 134.285 242.789 134.965 242.789C135.457 242.789 135.832 242.863 136.09 243.012V245.59ZM148.406 243L142.992 256.922C141.867 259.406 140.289 260.648 138.258 260.648C137.688 260.648 137.211 260.598 136.828 260.496V258.234C137.258 258.375 137.648 258.445 138 258.445C139.016 258.445 139.773 257.945 140.273 256.945L141.082 254.977L136.312 243H139.324L142.184 251.719C142.215 251.828 142.285 252.117 142.395 252.586H142.453C142.492 252.406 142.562 252.125 142.664 251.742L145.664 243H148.406ZM163.16 254.871C162.629 255.137 161.93 255.27 161.062 255.27C158.734 255.27 157.57 254.152 157.57 251.918V245.133H155.566V243H157.57V240.223L160.289 239.449V243H163.16V245.133H160.289V251.133C160.289 251.844 160.418 252.352 160.676 252.656C160.934 252.961 161.363 253.113 161.965 253.113C162.426 253.113 162.824 252.98 163.16 252.715V254.871ZM170.824 255.281C168.973 255.281 167.492 254.723 166.383 253.605C165.281 252.48 164.73 250.992 164.73 249.141C164.73 247.125 165.305 245.551 166.453 244.418C167.609 243.285 169.164 242.719 171.117 242.719C172.992 242.719 174.453 243.27 175.5 244.371C176.547 245.473 177.07 247 177.07 248.953C177.07 250.867 176.504 252.402 175.371 253.559C174.246 254.707 172.73 255.281 170.824 255.281ZM170.953 244.887C169.891 244.887 169.051 245.258 168.434 246C167.816 246.742 167.508 247.766 167.508 249.07C167.508 250.328 167.82 251.32 168.445 252.047C169.07 252.766 169.906 253.125 170.953 253.125C172.023 253.125 172.844 252.77 173.414 252.059C173.992 251.348 174.281 250.336 174.281 249.023C174.281 247.703 173.992 246.684 173.414 245.965C172.844 245.246 172.023 244.887 170.953 244.887ZM189.223 253.23H189.176V260.52H186.457V243H189.176V245.109H189.223C190.152 243.516 191.512 242.719 193.301 242.719C194.824 242.719 196.012 243.254 196.863 244.324C197.715 245.395 198.141 246.832 198.141 248.637C198.141 250.637 197.66 252.238 196.699 253.441C195.738 254.645 194.426 255.246 192.762 255.246C191.23 255.246 190.051 254.574 189.223 253.23ZM189.152 248.496V249.984C189.152 250.859 189.43 251.602 189.984 252.211C190.547 252.82 191.258 253.125 192.117 253.125C193.125 253.125 193.914 252.734 194.484 251.953C195.062 251.164 195.352 250.066 195.352 248.66C195.352 247.48 195.082 246.559 194.543 245.895C194.012 245.223 193.289 244.887 192.375 244.887C191.406 244.887 190.625 245.23 190.031 245.918C189.445 246.605 189.152 247.465 189.152 248.496ZM206.238 255.281C204.387 255.281 202.906 254.723 201.797 253.605C200.695 252.48 200.145 250.992 200.145 249.141C200.145 247.125 200.719 245.551 201.867 244.418C203.023 243.285 204.578 242.719 206.531 242.719C208.406 242.719 209.867 243.27 210.914 244.371C211.961 245.473 212.484 247 212.484 248.953C212.484 250.867 211.918 252.402 210.785 253.559C209.66 254.707 208.145 255.281 206.238 255.281ZM206.367 244.887C205.305 244.887 204.465 245.258 203.848 246C203.23 246.742 202.922 247.766 202.922 249.07C202.922 250.328 203.234 251.32 203.859 252.047C204.484 252.766 205.32 253.125 206.367 253.125C207.438 253.125 208.258 252.77 208.828 252.059C209.406 251.348 209.695 250.336 209.695 249.023C209.695 247.703 209.406 246.684 208.828 245.965C208.258 245.246 207.438 244.887 206.367 244.887ZM218.027 253.23H217.98V260.52H215.262V243H217.98V245.109H218.027C218.957 243.516 220.316 242.719 222.105 242.719C223.629 242.719 224.816 243.254 225.668 244.324C226.52 245.395 226.945 246.832 226.945 248.637C226.945 250.637 226.465 252.238 225.504 253.441C224.543 254.645 223.23 255.246 221.566 255.246C220.035 255.246 218.855 254.574 218.027 253.23ZM217.957 248.496V249.984C217.957 250.859 218.234 251.602 218.789 252.211C219.352 252.82 220.062 253.125 220.922 253.125C221.93 253.125 222.719 252.734 223.289 251.953C223.867 251.164 224.156 250.066 224.156 248.66C224.156 247.48 223.887 246.559 223.348 245.895C222.816 245.223 222.094 244.887 221.18 244.887C220.211 244.887 219.43 245.23 218.836 245.918C218.25 246.605 217.957 247.465 217.957 248.496ZM240.188 255H237.469V253.102H237.422C236.633 254.555 235.406 255.281 233.742 255.281C230.906 255.281 229.488 253.578 229.488 250.172V243H232.207V249.891C232.207 252.047 233.039 253.125 234.703 253.125C235.508 253.125 236.168 252.828 236.684 252.234C237.207 251.641 237.469 250.863 237.469 249.902V243H240.188V255ZM246.469 255H243.738V237.234H246.469V255ZM259.23 255H256.594V253.125H256.547C255.719 254.562 254.504 255.281 252.902 255.281C251.723 255.281 250.797 254.961 250.125 254.32C249.461 253.68 249.129 252.832 249.129 251.777C249.129 249.512 250.434 248.191 253.043 247.816L256.605 247.312C256.605 245.602 255.793 244.746 254.168 244.746C252.738 244.746 251.449 245.238 250.301 246.223V243.844C251.566 243.094 253.027 242.719 254.684 242.719C257.715 242.719 259.23 244.211 259.23 247.195V255ZM256.605 249.105L254.086 249.457C253.305 249.559 252.715 249.75 252.316 250.031C251.926 250.305 251.73 250.789 251.73 251.484C251.73 251.992 251.91 252.41 252.27 252.738C252.637 253.059 253.125 253.219 253.734 253.219C254.562 253.219 255.246 252.93 255.785 252.352C256.332 251.766 256.605 251.031 256.605 250.148V249.105ZM269.52 245.59C269.191 245.332 268.719 245.203 268.102 245.203C267.297 245.203 266.625 245.566 266.086 246.293C265.547 247.02 265.277 248.008 265.277 249.258V255H262.559V243H265.277V245.473H265.324C265.59 244.629 265.996 243.973 266.543 243.504C267.098 243.027 267.715 242.789 268.395 242.789C268.887 242.789 269.262 242.863 269.52 243.012V245.59ZM280.816 253.266H280.77V255H278.051V237.234H280.77V245.109H280.816C281.746 243.516 283.105 242.719 284.895 242.719C286.41 242.719 287.594 243.258 288.445 244.336C289.305 245.406 289.734 246.844 289.734 248.648C289.734 250.656 289.254 252.266 288.293 253.477C287.332 254.68 286.02 255.281 284.355 255.281C282.793 255.281 281.613 254.609 280.816 253.266ZM280.746 248.496V249.984C280.746 250.859 281.023 251.602 281.578 252.211C282.141 252.82 282.852 253.125 283.711 253.125C284.719 253.125 285.508 252.734 286.078 251.953C286.656 251.164 286.945 250.066 286.945 248.66C286.945 247.48 286.676 246.559 286.137 245.895C285.605 245.223 284.883 244.887 283.969 244.887C283 244.887 282.219 245.23 281.625 245.918C281.039 246.605 280.746 247.465 280.746 248.496ZM302.672 249.738H294.492C294.523 250.848 294.863 251.703 295.512 252.305C296.168 252.906 297.066 253.207 298.207 253.207C299.488 253.207 300.664 252.824 301.734 252.059V254.25C300.641 254.938 299.195 255.281 297.398 255.281C295.633 255.281 294.246 254.738 293.238 253.652C292.238 252.559 291.738 251.023 291.738 249.047C291.738 247.18 292.289 245.66 293.391 244.488C294.5 243.309 295.875 242.719 297.516 242.719C299.156 242.719 300.426 243.246 301.324 244.301C302.223 245.355 302.672 246.82 302.672 248.695V249.738ZM300.047 247.816C300.039 246.84 299.809 246.082 299.355 245.543C298.902 244.996 298.277 244.723 297.48 244.723C296.699 244.723 296.035 245.008 295.488 245.578C294.949 246.148 294.617 246.895 294.492 247.816H300.047ZM307.992 255H305.262V237.234H307.992V255ZM312.914 240.48C312.469 240.48 312.086 240.336 311.766 240.047C311.453 239.758 311.297 239.391 311.297 238.945C311.297 238.5 311.453 238.129 311.766 237.832C312.086 237.535 312.469 237.387 312.914 237.387C313.375 237.387 313.766 237.535 314.086 237.832C314.406 238.129 314.566 238.5 314.566 238.945C314.566 239.367 314.406 239.73 314.086 240.035C313.766 240.332 313.375 240.48 312.914 240.48ZM314.262 255H311.543V243H314.262V255ZM327.984 249.738H319.805C319.836 250.848 320.176 251.703 320.824 252.305C321.48 252.906 322.379 253.207 323.52 253.207C324.801 253.207 325.977 252.824 327.047 252.059V254.25C325.953 254.938 324.508 255.281 322.711 255.281C320.945 255.281 319.559 254.738 318.551 253.652C317.551 252.559 317.051 251.023 317.051 249.047C317.051 247.18 317.602 245.66 318.703 244.488C319.812 243.309 321.188 242.719 322.828 242.719C324.469 242.719 325.738 243.246 326.637 244.301C327.535 245.355 327.984 246.82 327.984 248.695V249.738ZM325.359 247.816C325.352 246.84 325.121 246.082 324.668 245.543C324.215 244.996 323.59 244.723 322.793 244.723C322.012 244.723 321.348 245.008 320.801 245.578C320.262 246.148 319.93 246.895 319.805 247.816H325.359ZM337.359 239.449C336.992 239.238 336.574 239.133 336.105 239.133C334.785 239.133 334.125 239.879 334.125 241.371V243H336.914V245.133H334.137V255H331.418V245.133H329.367V243H331.418V241.055C331.418 239.789 331.832 238.793 332.66 238.066C333.488 237.332 334.523 236.965 335.766 236.965C336.438 236.965 336.969 237.039 337.359 237.188V239.449ZM339.973 255.258C339.504 255.258 339.105 255.105 338.777 254.801C338.449 254.488 338.285 254.117 338.285 253.688C338.285 253.25 338.449 252.875 338.777 252.562C339.105 252.25 339.504 252.094 339.973 252.094C340.449 252.094 340.852 252.25 341.18 252.562C341.516 252.875 341.684 253.25 341.684 253.688C341.684 254.117 341.516 254.488 341.18 254.801C340.852 255.105 340.449 255.258 339.973 255.258Z" fill="#2A3950"/>
<g filter="url(#filter1_d_9_10162)">
<rect x="54" y="40" width="310" height="180" rx="20" fill="#2A3950"/>
<rect x="53" y="39" width="312" height="182" rx="21" stroke="white" stroke-width="2"/>
</g>
<mask id="mask0_9_10162" style="mask-type:alpha" maskUnits="userSpaceOnUse" x="54" y="40" width="310" height="180">
<rect x="54" y="40" width="310" height="180" rx="20" fill="#2A3950"/>
</mask>
<g mask="url(#mask0_9_10162)">
<path d="M316.47 250.91H99.9219C73.4141 250.91 51.8 229.296 51.8 202.788L51.8 -187.488C51.8 -213.996 73.4141 -235.61 99.9219 -235.61H316.47C342.978 -235.61 364.592 -213.996 364.592 -187.488V202.788C364.592 229.296 342.978 250.91 316.47 250.91Z" fill="#C5E5ED"/>
<path d="M490 91.8331L488.859 84.6952H462.625C454.07 84.6952 446.656 90.4055 446.371 97.5434L445.801 109.25H428.977L426.125 174.919H449.508C458.062 174.919 465.477 180.629 465.762 187.767L466.902 211.75H490V91.8331ZM417 136.659L420.137 69.8483C420.422 62.7103 413.578 57 405.023 57L355.977 57C347.422 57 340.008 62.7103 339.723 69.8483L338.297 99.5421H312.062C303.508 99.5421 296.094 105.252 295.809 112.39L294.668 136.374H271V239.16V167.21L272.141 160.072H298.945C307.5 160.072 314.914 165.782 315.199 172.92L315.77 184.626H332.594L336.301 264H346.852L341.434 145.225C341.148 138.087 347.992 132.377 356.547 132.377H405.309C409.871 132.377 414.148 134.09 417 136.659Z" fill="#9EC7D9"/>
<path d="M52 91.8331L53.1406 84.6952H79.375C87.9297 84.6952 95.3438 90.4055 95.6289 97.5434L96.1992 109.25H113.023L115.875 174.919H92.4922C83.9375 174.919 76.5234 180.629 76.2383 187.767L75.0977 211.75H52L52 91.8331ZM125 136.659L121.863 69.8483C121.578 62.7103 128.422 57 136.977 57L186.023 57C194.578 57 201.992 62.7103 202.277 69.8483L203.703 99.5421H229.938C238.492 99.5421 245.906 105.252 246.191 112.39L247.332 136.374H271V239.16V167.21L269.859 160.072H243.055C234.5 160.072 227.086 165.782 226.801 172.92L226.23 184.626H209.406L205.699 264H195.148L200.566 145.225C200.852 138.087 194.008 132.377 185.453 132.377H136.691C132.129 132.377 127.852 134.09 125 136.659Z" fill="#9EC7D9"/>
<path d="M49 196V176.394C55.9462 176.394 62.0753 180.07 62.0753 180.07C62.0753 180.07 64.1183 167 81.2796 167C98.4409 167 98.4409 180.887 98.4409 180.887C118.871 174.761 125 189.873 125 189.873L49 196Z" fill="#8C8C2F"/>
<path d="M366 178.193V199L259 188.809C259 188.809 264.412 176.92 275.237 181.59C275.237 181.59 296.054 164.181 326.031 165.03C356.008 165.879 350.179 187.96 350.179 187.96C350.179 187.96 355.591 179.892 366 178.193Z" fill="#8C8C2F"/>
<path d="M366 185V232.59C366 259.256 344.067 281 317.167 281H97.8329C70.9334 281 49 259.256 49 232.59V188.282L366 185Z" fill="#8C8C2F"/>
<path d="M380.965 257.364C372.274 271.463 356.962 281 339.167 281H119.833C92.9334 281 71 259.023 71 232.07V221.703C150.871 217.971 298.197 211.751 245.64 224.191C174.46 240.777 213.36 259.437 318.475 256.12C341.236 255.705 362.342 256.12 380.965 257.364ZM388 199.311V220.459C380.551 220.874 373.102 220.874 365.239 220.874C317.648 221.288 279.161 216.727 279.161 210.922C279.161 204.702 317.648 199.726 365.239 199.311C373.102 198.896 380.965 198.896 388 199.311Z" fill="#6B6B1E"/>
<path d="M143 220C161.221 199.709 173.307 174.252 180.93 148.612C177.955 148.612 179.256 144.738 179.628 143.078C179.814 141.049 181.673 141.233 182.975 141.233C189.854 115.408 191.714 93.0874 191.899 84.9709V84.0485C187.251 84.0485 187.623 83.6796 188.181 78.5146C188.367 76.301 190.784 76.6699 192.271 76.6699C192.271 72.7961 194.874 69.2913 198.407 68L201.01 49H203.985L205.658 68C209.005 69.4757 211.422 72.7961 211.422 76.6699C215.698 76.6699 215.327 76.6699 215.698 81.6505C215.884 84.233 212.724 83.8641 211.422 83.8641V85.1553C211.422 98.068 212.538 117.621 217.744 141.049C221.276 141.049 220.905 141.417 221.462 146.029C221.648 147.32 220.719 148.427 219.417 148.427C225.925 174.068 236.709 199.524 254 219.816H227.784C227.784 203.214 215.141 190.67 198.965 190.67C182.603 190.67 168.844 204.505 168.844 219.816H143V220ZM187.065 172.592H212.166L206.96 148.612L203.241 130.165C203.055 129.243 202.312 128.505 201.196 128.505C200.266 128.505 199.337 129.243 199.151 130.165L195.618 148.612H193.201L187.065 172.592Z" fill="white"/>
<path d="M147 220C192.957 167.039 192.771 84 192.771 84H202.593H212.414C212.414 84 212.043 167.039 258 220H231.501C231.501 203.946 218.344 190.844 202.222 190.844C186.1 190.844 172.943 203.946 172.943 220H147ZM192.586 172.575H212.414C213.155 172.575 213.711 172.391 214.082 171.837C214.452 171.284 214.638 170.73 214.452 169.992C212.599 163.349 210.932 156.152 209.449 148.402L204.075 126.258C203.89 125.335 202.963 124.597 202.037 124.782C201.11 124.782 200.184 125.52 199.998 126.442L195.736 148.586C194.254 156.152 192.401 163.533 190.733 170.176C190.548 170.73 190.733 171.468 191.104 172.022C191.289 172.391 191.845 172.575 192.586 172.575Z" fill="#F0E7DA"/>
<path d="M250.575 211.139C252.803 214.152 255.401 217.165 258 220H231.642C231.642 217.165 231.271 214.506 230.528 212.025C233.498 218.582 246.677 218.051 250.575 211.139ZM147 220C151.084 215.57 154.796 210.785 158.137 206C158.137 206 162.406 216.278 175.214 209.013C173.729 212.38 172.801 216.101 172.801 220H147Z" fill="#CCC5BA"/>
<path d="M172 181.038C172.186 180.692 172.372 180.346 172.372 180H233.395C234.326 181.731 235.07 183.635 236 185.365H233.581C232.837 186.577 230.233 187.442 227.07 187.442C223.349 187.442 220.372 186.231 220.372 184.5V184.327L172 181.038ZM182.605 186.231C183.349 186.231 184.093 186.923 184.093 187.615C184.093 188.308 183.349 189 182.605 189C181.86 189 181.116 188.308 181.116 187.615C181.116 186.923 181.674 186.231 182.605 186.231Z" fill="#CCC5BA"/>
<path d="M193 86.1639C193 84.7213 193 84 193 84H202.907H212.813C212.813 84 212.813 85.4426 213 88.3279L209.636 87.9672C209.822 88.1475 209.822 88.5082 209.822 88.6885C209.822 89.7705 208.888 90.4918 207.953 90.4918C206.832 90.4918 206.084 89.5902 206.084 88.6885C206.084 88.3279 206.271 87.9672 206.458 87.6066L193 86.1639ZM196.364 92.1148C197.112 92.1148 197.86 92.8361 197.86 93.5574C197.86 94.2787 197.112 95 196.364 95C195.617 95 194.869 94.2787 194.869 93.5574C194.869 92.6557 195.617 92.1148 196.364 92.1148Z" fill="#CCC5BA"/>
<path d="M183 150.13C183.553 148.42 183.921 146.71 184.289 145H220.763C221.316 147.47 222.053 149.94 222.789 152.41L209.895 151.65C209.711 150.51 209.526 149.56 209.158 148.42H195.711C195.526 149.18 195.342 150.13 195.158 150.89L183 150.13ZM193.5 154.5C193.868 154.5 194.053 154.5 194.421 154.69C194.053 156.78 193.5 158.68 193.132 160.58C191.658 160.39 190.553 159.06 190.553 157.54C190.553 155.83 191.842 154.5 193.5 154.5ZM223.158 153.93C223.711 155.45 224.079 157.16 224.632 158.68C224.263 158.87 223.895 158.87 223.526 158.87C222.237 158.87 221.132 157.73 221.132 156.4C221.132 155.07 222.053 153.93 223.158 153.93ZM224.079 162.1C224.632 162.1 225 162.48 225 163.05C225 163.62 224.632 164 224.079 164C223.526 164 223.158 163.62 223.158 163.05C222.974 162.48 223.526 162.1 224.079 162.1Z" fill="#CCC5BA"/>
<path d="M168.109 180H237.891C238.632 180 239.187 179.821 239.557 179.282C239.927 178.744 240.112 178.205 239.927 177.667L239.002 174.436C238.817 173.538 237.891 173 236.966 173H169.034C168.109 173 167.368 173.538 166.998 174.436L166.073 177.667C165.888 178.205 166.073 178.923 166.443 179.282C166.998 179.641 167.553 180 168.109 180Z" fill="#F0E7DA"/>
<path d="M190.993 84H191.174H196.611H208.389H214.007C214.55 84 215.094 83.8158 215.456 83.2632C215.819 82.8947 216 82.3421 216 81.7895L215.819 78.4737C215.638 77.3684 214.913 76.6316 213.826 76.6316H211.832C211.832 72.7632 209.477 69.2632 206.034 67.9737L204.04 49H201.141L199.148 67.9737C195.705 69.4474 193.349 72.7632 193.349 76.6316H191.356C190.268 76.6316 189.544 77.3684 189.362 78.4737L189 81.7895C189 82.3421 189.181 82.8947 189.544 83.2632C189.906 83.6316 190.45 84 190.993 84Z" fill="#F0E7DA"/>
<path d="M191.243 84H191.43H194.42H196.476C197.41 84 198.158 83.2 197.971 82.2L197.784 77.8C197.784 76.8 196.85 76 195.915 76H194.794H193.486H191.43C190.308 76 189.561 76.8 189.374 78L189 81.6C189 82.2 189.187 82.8 189.561 83.2C190.121 83.6 190.682 84 191.243 84Z" fill="white"/>
<path d="M183.057 149H221.943C222.504 149 223.065 148.8 223.439 148.2C223.813 147.6 224 147 224 146.4L223.439 142.8C223.252 141.8 222.504 141 221.383 141H183.617C182.683 141 181.748 141.8 181.561 142.8L181 146.4C181 147 181 147.6 181.561 148.2C181.935 148.6 182.496 149 183.057 149Z" fill="#F0E7DA"/>
<path d="M54 161C62.1913 161.904 70.0792 166.123 70.9894 179.384C81.6078 173.055 85.2483 184.808 80.3942 189.027C80.3942 189.027 110.732 179.685 134.093 193.247C157.453 207.11 144.104 240.562 144.104 240.562C144.104 240.562 154.116 239.055 156.846 248.699H89.7991C70.0792 249 54 233.027 54 213.438V161ZM182.331 249H165.038C163.824 243.575 163.217 237.548 166.251 236.644C171.409 235.438 174.746 243.877 174.746 243.877C174.746 243.877 177.78 232.726 183.544 235.137C186.275 236.644 184.758 242.973 182.331 249Z" fill="#4A283E"/>
<path d="M198.146 69.6688C199.562 68.6515 200.801 68.855 200.978 69.8723C201.155 70.8896 200.27 72.5173 198.854 73.3312C197.438 74.3485 196.199 74.145 196.022 73.1277C195.845 72.1104 196.73 70.4827 198.146 69.6688Z" fill="white"/>
<path d="M181.75 149H195.25C195.438 149 195.625 148.8 195.813 148.2C196 147.6 196 147 196 146.4L195.813 142.8C195.813 141.8 195.438 141 195.062 141H181.938C181.562 141 181.375 141.8 181.188 142.8L181 146.4C181 147 181 147.6 181.188 148.2C181.375 148.6 181.563 149 181.75 149Z" fill="white"/>
<path d="M166.93 180H202.07C202.442 180 202.628 179.825 202.814 179.3C203 178.775 203 178.25 203 177.725L202.628 174.575C202.442 173.525 202.07 173 201.513 173H167.302C166.744 173 166.372 173.525 166.372 174.4L166 177.55C166 178.075 166 178.775 166.186 179.125C166.372 179.65 166.558 180 166.93 180Z" fill="white"/>
<path d="M96.319 154C100.52 154 105.189 156.567 106.589 159.5C107.99 162.433 105.656 165 101.921 165C97.7195 165 93.0512 162.433 91.6508 159.5C89.7835 156.2 92.1176 154 96.319 154Z" fill="#8C8C2F"/>
<path d="M356.943 163.236C354.727 163.685 352.511 166.378 352.068 168.622C351.625 170.866 353.398 172.662 356.057 171.764C358.273 171.315 360.489 168.622 360.932 166.378C361.375 164.134 359.602 162.338 356.943 163.236Z" fill="#8C8C2F"/>
<path d="M120.072 165.475C111.279 173.965 100.061 188.215 91.2683 209.438H91.8747C100.667 188.518 111.885 174.571 120.375 166.081L120.072 165.475Z" fill="#4A283E"/>
<path d="M99.4547 193.369C99.4547 193.369 101.577 177.906 95.21 180.028C88.8429 181.847 94.3004 192.156 99.4547 193.369Z" fill="#4A283E"/>
<path d="M101.88 188.821C101.88 188.821 115.827 181.544 115.524 188.214C115.221 195.188 101.577 191.246 101.88 188.821Z" fill="#4A283E"/>
<path d="M106.125 182.757C106.125 182.757 108.854 169.113 102.79 170.932C96.7261 172.752 100.061 181.241 106.125 182.757Z" fill="#4A283E"/>
<path d="M108.55 179.119C108.55 179.119 117.949 174.268 119.162 179.422C120.375 184.273 108.247 183.667 108.55 179.119Z" fill="#4A283E"/>
<path d="M113.098 173.358C113.098 173.358 116.13 164.869 111.582 164.262C107.035 163.959 107.944 173.055 113.098 173.358Z" fill="#4A283E"/>
<path d="M116.737 169.416C116.737 169.416 125.529 165.475 125.226 170.023C125.226 174.571 115.827 173.055 116.737 169.416Z" fill="#4A283E"/>
<path d="M93.3907 205.497C93.3907 205.497 95.5131 190.034 89.146 192.156C82.7789 193.975 88.2364 204.284 93.3907 205.497Z" fill="#4A283E"/>
<path d="M95.5129 200.949C95.5129 200.949 109.46 193.672 109.157 200.342C108.55 207.316 95.2097 203.374 95.5129 200.949Z" fill="#4A283E"/>
<path d="M40 55.6752V65H99.7852C98.7112 57.5401 83.6754 51.9453 72.2196 60.4224C71.5036 55.5056 58.6158 42.6204 40 55.6752ZM110.167 60.4224C112.852 60.4224 115 62.4569 115 65H105.334C105.155 62.4569 107.482 60.4224 110.167 60.4224Z" fill="white"/>
<path d="M320 75H292.556C293.711 66.0348 306.422 58.5157 320 60.2509V75ZM275.8 66.9024C271.467 66.9024 268 70.3728 268 74.7108H283.6C283.6 70.662 280.133 66.9024 275.8 66.9024Z" fill="white"/>
</g>
<defs>
<filter id="filter0_d_9_10162" x="0" y="0" width="418" height="396" filterUnits="userSpaceOnUse" color-interpolation-filters="sRGB">
<feFlood flood-opacity="0" result="BackgroundImageFix"/>
<feColorMatrix in="SourceAlpha" type="matrix" values="0 0 0 0 0 0 0 0 0 0 0 0 0 0 0 0 0 0 127 0" result="hardAlpha"/>
<feOffset dy="14"/>
<feGaussianBlur stdDeviation="17"/>
<feComposite in2="hardAlpha" operator="out"/>
<feColorMatrix type="matrix" values="0 0 0 0 0 0 0 0 0 0 0 0 0 0 0 0 0 0 0.2 0"/>
<feBlend mode="normal" in2="BackgroundImageFix" result="effect1_dropShadow_9_10162"/>
<feBlend mode="normal" in="SourceGraphic" in2="effect1_dropShadow_9_10162" result="shape"/>
</filter>
<filter id="filter1_d_9_10162" x="32" y="26" width="354" height="224" filterUnits="userSpaceOnUse" color-interpolation-filters="sRGB">
<feFlood flood-opacity="0" result="BackgroundImageFix"/>
<feColorMatrix in="SourceAlpha" type="matrix" values="0 0 0 0 0 0 0 0 0 0 0 0 0 0 0 0 0 0 127 0" result="hardAlpha"/>
<feOffset dy="8"/>
<feGaussianBlur stdDeviation="10"/>
<feComposite in2="hardAlpha" operator="out"/>
<feColorMatrix type="matrix" values="0 0 0 0 0 0 0 0 0 0 0 0 0 0 0 0 0 0 0.15 0"/>
<feBlend mode="normal" in2="BackgroundImageFix" result="effect1_dropShadow_9_10162"/>
<feBlend mode="normal" in="SourceGraphic" in2="effect1_dropShadow_9_10162" result="shape"/>
</filter>
</defs>
</svg>
