<svg width="483" height="468" viewBox="0 0 483 468" fill="none" xmlns="http://www.w3.org/2000/svg">
<g filter="url(#filter0_d_8_10102)">
<rect x="30" y="107" width="350" height="328" rx="20" transform="rotate(-15 30 107)" fill="white"/>
</g>
<rect x="334.74" y="313.739" width="89" height="30" rx="5" transform="rotate(-15 334.74 313.739)" fill="#00E0C7"/>
<path d="M358.744 318.278L358.123 327.143L356.052 327.698L351.115 320.322L353.085 319.795L356.29 324.99C356.463 325.271 356.59 325.526 356.671 325.755L356.705 325.746C356.664 325.486 356.648 325.193 356.658 324.867L356.831 318.791L358.744 318.278ZM360.824 319.225C360.522 319.306 360.251 319.284 360.011 319.158C359.77 319.028 359.615 318.833 359.545 318.573C359.473 318.305 359.511 318.061 359.658 317.839C359.805 317.618 360.029 317.467 360.331 317.386C360.637 317.304 360.907 317.323 361.141 317.442C361.379 317.56 361.534 317.753 361.605 318.021C361.678 318.293 361.642 318.541 361.496 318.766C361.354 318.99 361.13 319.143 360.824 319.225ZM363.506 325.701L361.717 326.18L360.164 320.385L361.953 319.906L363.506 325.701ZM369.578 321.514L365.797 322.527C366.083 323.352 366.726 323.631 367.726 323.363C368.364 323.192 368.883 322.891 369.285 322.46L369.631 323.75C369.172 324.181 368.515 324.511 367.658 324.74C366.722 324.991 365.927 324.927 365.271 324.549C364.615 324.166 364.162 323.511 363.914 322.583C363.656 321.621 363.731 320.784 364.139 320.072C364.546 319.36 365.158 318.895 365.973 318.677C366.818 318.45 367.538 318.526 368.133 318.905C368.731 319.282 369.146 319.901 369.376 320.761L369.578 321.514ZM367.625 320.861C367.403 320.03 366.956 319.705 366.284 319.885C365.998 319.962 365.78 320.148 365.633 320.442C365.489 320.735 365.442 321.065 365.492 321.432L367.625 320.861ZM378.122 315.573L378.006 321.816L376.127 322.319L374.362 319.153C374.245 318.941 374.147 318.703 374.067 318.437L374.033 318.446C374.086 318.747 374.112 318.997 374.113 319.195L374.112 322.859L372.255 323.357L369.067 317.999L370.889 317.511L372.7 321.078C372.786 321.245 372.872 321.453 372.958 321.7L372.992 321.691C372.94 321.422 372.914 321.19 372.915 320.996L372.904 316.971L374.608 316.515L376.515 320.056C376.563 320.144 376.648 320.356 376.77 320.691L376.81 320.68C376.77 320.457 376.742 320.23 376.724 320L376.464 316.017L378.122 315.573ZM393.157 317.756L391.351 318.24L390.05 313.384C389.91 312.859 389.777 312.274 389.653 311.628L389.607 311.64C389.646 312.164 389.658 312.545 389.641 312.784L389.218 318.812L387.723 319.212L384.324 314.269C384.232 314.136 384.046 313.781 383.766 313.205L383.715 313.219C383.979 314.006 384.191 314.701 384.353 315.305L385.556 319.793L383.909 320.234L381.734 312.118L384.411 311.401L387.359 315.767C387.594 316.117 387.794 316.478 387.958 316.85L387.992 316.841C387.974 316.365 387.976 315.945 388.001 315.583L388.373 310.339L390.982 309.64L393.157 317.756ZM397.626 316.71C396.66 316.969 395.828 316.903 395.129 316.512C394.432 316.116 393.959 315.454 393.711 314.526C393.454 313.568 393.54 312.742 393.969 312.049C394.397 311.352 395.1 310.872 396.077 310.61C397.039 310.353 397.866 310.422 398.559 310.819C399.251 311.212 399.716 311.854 399.954 312.744C400.212 313.706 400.133 314.542 399.717 315.252C399.304 315.961 398.607 316.447 397.626 316.71ZM396.41 311.989C395.987 312.102 395.698 312.336 395.542 312.689C395.386 313.042 395.379 313.485 395.521 314.017C395.82 315.13 396.418 315.566 397.316 315.325C398.172 315.096 398.447 314.41 398.141 313.266C397.851 312.183 397.274 311.758 396.41 311.989ZM404.572 310.215C404.326 310.155 404.059 310.164 403.773 310.241C403.384 310.345 403.119 310.57 402.977 310.915C402.834 311.257 402.828 311.673 402.959 312.163L403.701 314.931L401.912 315.41L400.359 309.615L402.148 309.135L402.436 310.211L402.459 310.205C402.531 309.344 402.936 308.815 403.671 308.618C403.86 308.567 404.013 308.551 404.131 308.568L404.572 310.215ZM411.098 310.389L407.317 311.402C407.603 312.227 408.246 312.506 409.246 312.238C409.883 312.067 410.403 311.766 410.805 311.335L411.151 312.625C410.692 313.056 410.034 313.385 409.178 313.615C408.242 313.866 407.446 313.802 406.791 313.423C406.135 313.041 405.682 312.386 405.433 311.458C405.175 310.496 405.25 309.659 405.658 308.947C406.066 308.235 406.677 307.77 407.492 307.552C408.338 307.325 409.058 307.401 409.652 307.78C410.251 308.157 410.665 308.776 410.896 309.636L411.098 310.389ZM409.145 309.735C408.923 308.905 408.476 308.58 407.804 308.76C407.517 308.837 407.3 309.023 407.153 309.317C407.009 309.61 406.962 309.94 407.011 310.307L409.145 309.735Z" fill="#2A3950"/>
<rect x="121.883" y="371.291" width="88" height="29" rx="4.5" transform="rotate(-15 121.883 371.291)" stroke="#006270"/>
<path d="M141.741 385.123L139.566 377.007L141.875 376.388C142.577 376.2 143.179 376.223 143.683 376.456C144.186 376.689 144.511 377.081 144.659 377.632C144.782 378.092 144.765 378.525 144.607 378.932C144.449 379.338 144.17 379.671 143.771 379.932L143.777 379.955C144.341 379.872 144.835 379.963 145.257 380.225C145.678 380.485 145.964 380.893 146.113 381.452C146.299 382.146 146.201 382.775 145.818 383.339C145.435 383.902 144.865 384.286 144.106 384.489L141.741 385.123ZM140.747 377.612L141.449 380.233L142.423 379.972C142.944 379.832 143.32 379.598 143.551 379.269C143.781 378.937 143.835 378.542 143.713 378.085C143.502 377.297 142.877 377.042 141.84 377.32L140.747 377.612ZM141.678 381.087L142.461 384.008L143.751 383.662C144.31 383.512 144.706 383.265 144.941 382.918C145.18 382.571 145.238 382.168 145.114 381.707C144.857 380.749 144.076 380.445 142.771 380.795L141.678 381.087ZM151.693 382.602C150.542 382.91 149.518 382.778 148.62 382.206C147.727 381.632 147.117 380.738 146.792 379.523C146.442 378.218 146.516 377.082 147.013 376.115C147.51 375.149 148.366 374.503 149.581 374.178C150.702 373.877 151.705 374.013 152.59 374.585C153.479 375.155 154.087 376.05 154.413 377.269C154.768 378.593 154.698 379.734 154.202 380.692C153.706 381.65 152.87 382.286 151.693 382.602ZM149.744 375.056C148.891 375.285 148.281 375.778 147.914 376.535C147.547 377.293 147.497 378.171 147.765 379.171C148.033 380.171 148.507 380.908 149.188 381.38C149.871 381.848 150.63 381.97 151.464 381.747C152.354 381.508 152.978 381.03 153.336 380.311C153.693 379.593 153.732 378.711 153.452 377.666C153.165 376.594 152.694 375.833 152.039 375.381C151.384 374.93 150.619 374.821 149.744 375.056ZM160.431 380.26C159.281 380.569 158.257 380.437 157.359 379.864C156.465 379.291 155.856 378.397 155.53 377.182C155.18 375.876 155.254 374.74 155.751 373.774C156.249 372.808 157.105 372.162 158.32 371.836C159.44 371.536 160.443 371.671 161.329 372.243C162.217 372.814 162.825 373.708 163.152 374.927C163.507 376.252 163.436 377.393 162.941 378.35C162.445 379.308 161.609 379.945 160.431 380.26ZM158.482 372.715C157.63 372.943 157.02 373.436 156.653 374.194C156.285 374.951 156.236 375.83 156.504 376.83C156.771 377.83 157.246 378.566 157.927 379.039C158.61 379.507 159.369 379.629 160.203 379.406C161.093 379.167 161.717 378.688 162.074 377.97C162.432 377.251 162.471 376.369 162.19 375.324C161.903 374.253 161.432 373.491 160.778 373.04C160.123 372.588 159.358 372.48 158.482 372.715ZM171.511 377.146L170.186 377.501L166.056 374.628C165.902 374.52 165.805 374.445 165.765 374.403L165.743 374.409L166.813 378.405L165.862 378.659L163.688 370.543L164.639 370.289L165.661 374.103L165.683 374.097C165.714 374 165.761 373.888 165.824 373.762L167.91 369.412L169.093 369.095L166.655 373.922L171.511 377.146ZM174.603 376.463C173.8 376.678 173.079 376.501 172.441 375.932C171.807 375.362 171.315 374.424 170.965 373.119C170.581 371.685 170.525 370.537 170.795 369.676C171.07 368.814 171.65 368.264 172.537 368.027C174.235 367.572 175.455 368.731 176.199 371.504C176.567 372.877 176.608 373.991 176.323 374.843C176.037 375.693 175.464 376.232 174.603 376.463ZM172.697 368.827C171.539 369.137 171.274 370.468 171.904 372.818C172.493 375.014 173.355 375.96 174.49 375.656C175.611 375.356 175.872 374.089 175.274 371.855C174.654 369.542 173.795 368.533 172.697 368.827ZM178.646 375.022L178.382 374.037C179.032 374.247 179.644 374.275 180.218 374.121C180.792 373.968 181.21 373.682 181.474 373.263C181.738 372.844 181.798 372.367 181.655 371.832C181.512 371.3 181.222 370.932 180.784 370.73C180.345 370.528 179.792 370.517 179.124 370.696C178.898 370.756 178.479 370.893 177.869 371.105L176.779 367.036L180.706 365.983L180.931 366.821L177.88 367.638L178.517 370.015C178.762 369.933 178.99 369.864 179.202 369.808C180.07 369.575 180.8 369.614 181.392 369.924C181.984 370.231 182.382 370.763 182.585 371.522C182.795 372.306 182.708 373.007 182.323 373.624C181.942 374.24 181.306 374.667 180.416 374.905C179.665 375.107 179.075 375.145 178.646 375.022ZM187.1 373.114C186.296 373.33 185.576 373.153 184.938 372.584C184.304 372.013 183.812 371.076 183.462 369.77C183.078 368.336 183.021 367.189 183.292 366.328C183.566 365.466 184.147 364.916 185.034 364.678C186.732 364.223 187.952 365.382 188.695 368.156C189.063 369.529 189.105 370.642 188.82 371.495C188.534 372.344 187.96 372.884 187.1 373.114ZM185.194 365.478C184.035 365.789 183.771 367.119 184.401 369.47C184.989 371.666 185.851 372.612 186.987 372.308C188.108 372.007 188.369 370.74 187.77 368.507C187.15 366.194 186.292 365.184 185.194 365.478ZM191.46 368.513L192.282 371.58L191.331 371.835L189.156 363.719L191.386 363.121C192.254 362.889 192.982 362.92 193.571 363.216C194.164 363.51 194.563 364.042 194.769 364.811C194.975 365.581 194.878 366.282 194.478 366.916C194.081 367.548 193.431 367.984 192.53 368.226L191.46 368.513ZM190.338 364.325L191.23 367.652L192.226 367.386C192.882 367.21 193.342 366.927 193.606 366.537C193.872 366.142 193.932 365.671 193.785 365.124C193.498 364.052 192.721 363.686 191.453 364.026L190.338 364.325Z" fill="#006270"/>
<path d="M126.829 349.677C127.745 353.095 126.661 355.218 123.576 356.044C120.622 356.836 118.704 355.588 117.823 352.299L115.828 344.854L117.254 344.472L119.224 351.824C119.893 354.32 121.28 355.286 123.386 354.721C125.417 354.177 126.11 352.699 125.464 350.288L123.46 342.809L124.886 342.427L126.829 349.677ZM132.099 352.196L132.065 352.205L133.473 357.46L132.081 357.833L128.68 345.141L130.072 344.768L130.482 346.296L130.516 346.287C130.891 344.949 131.738 344.103 133.057 343.75C134.178 343.449 135.157 343.606 135.994 344.218C136.83 344.825 137.423 345.783 137.774 347.09C138.163 348.545 138.122 349.805 137.65 350.872C137.176 351.933 136.325 352.628 135.097 352.957C133.97 353.259 132.971 353.005 132.099 352.196ZM131.126 348.699L131.451 349.913C131.643 350.631 132.039 351.18 132.638 351.56C133.242 351.932 133.903 352.022 134.621 351.829C135.465 351.603 136.038 351.104 136.34 350.331C136.648 349.557 136.648 348.596 136.341 347.447C136.081 346.479 135.654 345.78 135.06 345.351C134.466 344.922 133.787 344.81 133.023 345.015C132.214 345.231 131.638 345.689 131.298 346.387C130.955 347.079 130.898 347.85 131.126 348.699ZM145.241 349.93C144.961 350.199 144.552 350.406 144.015 350.55C142.492 350.958 141.503 350.313 141.048 348.615L139.67 343.47L138.176 343.87L137.857 342.682L139.351 342.281L138.783 340.159L140.054 339.336L140.744 341.908L142.934 341.322L143.253 342.51L141.062 343.097L142.375 347.995C142.531 348.578 142.741 348.968 143.006 349.164C143.271 349.36 143.633 349.396 144.091 349.273C144.442 349.179 144.719 349.002 144.922 348.741L145.241 349.93ZM150.811 348.747C149.526 349.091 148.39 348.962 147.404 348.359C146.421 347.748 145.75 346.772 145.391 345.431C145 343.971 145.093 342.724 145.671 341.689C146.249 340.655 147.218 339.955 148.576 339.591C149.872 339.244 150.989 339.372 151.927 339.976C152.871 340.579 153.533 341.587 153.912 343.002C154.284 344.389 154.188 345.606 153.626 346.655C153.068 347.696 152.129 348.393 150.811 348.747ZM148.788 340.79C147.894 341.03 147.268 341.525 146.911 342.276C146.553 343.021 146.517 343.928 146.804 344.998C147.08 346.028 147.56 346.77 148.246 347.223C148.932 347.676 149.716 347.785 150.599 347.548C151.499 347.307 152.111 346.83 152.436 346.119C152.766 345.405 152.788 344.511 152.499 343.435C152.208 342.349 151.74 341.576 151.096 341.118C150.457 340.658 149.688 340.549 148.788 340.79ZM161.985 345.216L161.589 343.739C162.565 344.054 163.483 344.096 164.343 343.865C165.204 343.635 165.832 343.205 166.228 342.578C166.624 341.95 166.714 341.234 166.499 340.431C166.285 339.632 165.849 339.082 165.192 338.779C164.534 338.476 163.704 338.459 162.703 338.727C162.363 338.818 161.736 339.023 160.82 339.341L159.184 333.237L165.076 331.658L165.413 332.914L160.837 334.141L161.792 337.706C162.16 337.583 162.502 337.48 162.819 337.395C164.121 337.046 165.216 337.104 166.105 337.57C166.993 338.029 167.589 338.828 167.894 339.966C168.209 341.143 168.078 342.194 167.501 343.119C166.93 344.043 165.976 344.683 164.64 345.041C163.514 345.343 162.629 345.401 161.985 345.216ZM174.667 342.355C173.461 342.678 172.38 342.412 171.423 341.559C170.472 340.703 169.734 339.297 169.21 337.338C168.633 335.188 168.548 333.466 168.954 332.175C169.366 330.882 170.237 330.057 171.567 329.7C174.114 329.018 175.945 330.757 177.059 334.917C177.611 336.977 177.673 338.646 177.246 339.926C176.817 341.199 175.957 342.009 174.667 342.355ZM171.807 330.901C170.069 331.366 169.673 333.362 170.618 336.888C171.5 340.182 172.793 341.601 174.497 341.144C176.178 340.694 176.569 338.794 175.672 335.443C174.742 331.974 173.454 330.46 171.807 330.901ZM181.22 333.874C180.383 334.099 179.641 334.003 178.996 333.588C178.349 333.167 177.903 332.495 177.655 331.572C177.385 330.565 177.436 329.702 177.808 328.984C178.178 328.26 178.81 327.778 179.705 327.538C180.57 327.306 181.313 327.395 181.933 327.805C182.558 328.214 183.001 328.905 183.262 329.879C183.522 330.852 183.463 331.705 183.083 332.438C182.707 333.164 182.086 333.642 181.22 333.874ZM179.904 328.486C179.366 328.63 178.995 328.944 178.792 329.43C178.587 329.909 178.577 330.497 178.764 331.193C178.947 331.878 179.244 332.372 179.652 332.675C180.06 332.972 180.526 333.05 181.053 332.909C181.585 332.767 181.948 332.457 182.141 331.981C182.335 331.504 182.338 330.915 182.15 330.213C181.967 329.528 181.674 329.036 181.273 328.738C180.875 328.432 180.419 328.348 179.904 328.486ZM187.735 325.587L183.209 339.938L181.995 340.264L186.512 325.914L187.735 325.587ZM190.147 338.189C189.309 338.413 188.567 338.315 187.92 337.893C187.274 337.472 186.828 336.803 186.582 335.886C186.312 334.879 186.365 334.012 186.741 333.287C187.115 332.556 187.744 332.072 188.627 331.835C189.487 331.605 190.23 331.697 190.857 332.111C191.484 332.526 191.928 333.222 192.191 334.202C192.45 335.169 192.39 336.02 192.01 336.752C191.634 337.478 191.013 337.957 190.147 338.189ZM188.833 332.808C188.289 332.954 187.915 333.266 187.71 333.746C187.511 334.224 187.505 334.814 187.693 335.516C187.873 336.189 188.168 336.678 188.577 336.981C188.984 337.278 189.451 337.356 189.977 337.215C190.509 337.072 190.872 336.763 191.066 336.286C191.258 335.804 191.261 335.215 191.074 334.519C190.889 333.828 190.597 333.336 190.197 333.043C189.802 332.749 189.348 332.67 188.833 332.808ZM203.514 334.625C202.229 334.969 201.094 334.84 200.107 334.237C199.125 333.626 198.454 332.651 198.094 331.309C197.703 329.849 197.796 328.602 198.375 327.567C198.953 326.533 199.921 325.834 201.279 325.47C202.575 325.122 203.693 325.251 204.631 325.855C205.575 326.457 206.236 327.466 206.615 328.881C206.987 330.267 206.892 331.485 206.329 332.533C205.771 333.574 204.833 334.272 203.514 334.625ZM201.491 326.668C200.597 326.908 199.972 327.403 199.615 328.154C199.256 328.899 199.22 329.807 199.507 330.876C199.783 331.906 200.264 332.648 200.949 333.101C201.635 333.554 202.419 333.663 203.302 333.426C204.202 333.185 204.814 332.709 205.139 331.997C205.47 331.283 205.491 330.389 205.203 329.314C204.912 328.227 204.444 327.455 203.799 326.996C203.161 326.537 202.391 326.427 201.491 326.668ZM211.188 319.866C210.876 319.786 210.547 319.793 210.201 319.885C209.228 320.146 208.906 320.89 209.235 322.119L209.594 323.46L211.632 322.914L211.95 324.103L209.913 324.649L211.924 332.153L210.54 332.524L208.529 325.019L207.043 325.417L206.725 324.229L208.21 323.831L207.833 322.422C207.589 321.51 207.659 320.721 208.045 320.054C208.428 319.381 209.014 318.939 209.8 318.728C210.225 318.614 210.575 318.575 210.852 318.61L211.188 319.866ZM216.639 318.406C216.326 318.326 215.997 318.332 215.652 318.425C214.678 318.686 214.356 319.43 214.685 320.658L215.045 322L217.082 321.454L217.401 322.642L215.363 323.188L217.374 330.693L215.99 331.064L213.979 323.559L212.494 323.957L212.175 322.768L213.661 322.37L213.283 320.961C213.039 320.05 213.11 319.261 213.495 318.593C213.879 317.92 214.464 317.478 215.251 317.267C215.675 317.154 216.026 317.114 216.302 317.15L216.639 318.406ZM230.834 327.305C229.107 327.767 227.571 327.569 226.225 326.711C224.884 325.851 223.97 324.509 223.482 322.687C222.957 320.729 223.068 319.025 223.814 317.575C224.559 316.126 225.844 315.157 227.666 314.669C229.347 314.218 230.851 314.422 232.179 315.279C233.512 316.135 234.424 317.477 234.914 319.305C235.446 321.292 235.341 323.003 234.597 324.44C233.854 325.877 232.599 326.832 230.834 327.305ZM227.91 315.986C226.631 316.329 225.716 317.069 225.165 318.205C224.614 319.341 224.54 320.659 224.942 322.159C225.344 323.659 226.055 324.764 227.076 325.473C228.101 326.175 229.239 326.358 230.49 326.023C231.826 325.665 232.762 324.947 233.298 323.869C233.834 322.791 233.892 321.469 233.472 319.901C233.041 318.294 232.335 317.151 231.353 316.474C230.371 315.797 229.223 315.635 227.91 315.986ZM246.009 323.02L244.617 323.393L243.289 318.435C242.794 316.59 241.873 315.848 240.526 316.209C239.83 316.396 239.324 316.813 239.006 317.463C238.693 318.105 238.643 318.825 238.857 319.623L240.185 324.581L238.793 324.954L236.464 316.26L237.856 315.887L238.243 317.33L238.277 317.321C238.639 316.047 239.443 315.244 240.688 314.91C241.639 314.655 242.449 314.769 243.118 315.251C243.785 315.727 244.274 316.545 244.585 317.706L246.009 323.02ZM258.249 306.692L256.29 315.443L257.496 319.942L256.069 320.324L254.873 315.859L248.894 309.199L250.515 308.765L254.714 313.536C254.767 313.594 254.932 313.817 255.212 314.203L255.237 314.196C255.242 313.989 255.283 313.711 255.36 313.363L256.738 307.097L258.249 306.692ZM266.711 317.692C265.426 318.036 264.29 317.906 263.304 317.303C262.321 316.693 261.65 315.717 261.291 314.376C260.899 312.916 260.993 311.668 261.571 310.634C262.149 309.599 263.117 308.9 264.476 308.536C265.772 308.189 266.889 308.317 267.827 308.921C268.771 309.523 269.433 310.532 269.812 311.947C270.183 313.334 270.088 314.551 269.526 315.6C268.968 316.641 268.029 317.338 266.711 317.692ZM264.688 309.735C263.794 309.975 263.168 310.47 262.811 311.221C262.453 311.966 262.417 312.873 262.703 313.943C262.979 314.973 263.46 315.715 264.146 316.168C264.831 316.621 265.616 316.729 266.499 316.493C267.398 316.252 268.011 315.775 268.336 315.063C268.666 314.35 268.687 313.456 268.399 312.38C268.108 311.294 267.64 310.521 266.996 310.063C266.357 309.603 265.588 309.494 264.688 309.735ZM280.239 313.848L278.847 314.221L278.478 312.846L278.445 312.855C278.149 314.062 277.396 314.828 276.185 315.153C274.113 315.708 272.747 314.752 272.086 312.284L270.694 307.088L272.078 306.718L273.411 311.693C273.902 313.526 274.849 314.255 276.253 313.879C276.932 313.697 277.423 313.299 277.725 312.684C278.032 312.062 278.077 311.346 277.86 310.537L276.518 305.528L277.91 305.155L280.239 313.848ZM285.64 304.594C285.346 304.473 284.97 304.473 284.512 304.596C283.917 304.755 283.494 305.169 283.243 305.837C282.997 306.503 283.003 307.321 283.263 308.288L284.45 312.72L283.058 313.093L280.728 304.4L282.121 304.027L282.601 305.818L282.635 305.809C282.669 305.144 282.844 304.588 283.161 304.139C283.476 303.685 283.885 303.39 284.389 303.255C284.751 303.158 285.039 303.123 285.253 303.151L285.64 304.594ZM294.963 308.556L294.929 308.565L295.266 309.822L293.874 310.195L290.425 297.325L291.817 296.952L293.346 302.657L293.38 302.648C293.755 301.309 294.602 300.464 295.921 300.11C297.036 299.812 298.012 299.969 298.85 300.581C299.692 301.187 300.288 302.143 300.638 303.451C301.028 304.905 300.986 306.166 300.514 307.233C300.04 308.294 299.189 308.989 297.961 309.318C296.812 309.626 295.813 309.372 294.963 308.556ZM293.99 305.059L294.315 306.273C294.508 306.992 294.903 307.541 295.502 307.92C296.106 308.293 296.767 308.382 297.485 308.19C298.329 307.964 298.902 307.465 299.204 306.692C299.512 305.918 299.513 304.956 299.205 303.807C298.945 302.84 298.519 302.141 297.924 301.712C297.33 301.283 296.651 301.17 295.887 301.375C295.078 301.592 294.503 302.049 294.162 302.747C293.82 303.44 293.762 304.21 293.99 305.059ZM307.783 306.686C306.498 307.03 305.363 306.901 304.376 306.298C303.394 305.688 302.723 304.712 302.363 303.371C301.972 301.91 302.066 300.663 302.644 299.628C303.222 298.594 304.19 297.895 305.548 297.531C306.844 297.184 307.962 297.312 308.9 297.916C309.844 298.518 310.505 299.527 310.884 300.942C311.256 302.328 311.161 303.546 310.598 304.594C310.04 305.636 309.102 306.333 307.783 306.686ZM305.76 298.73C304.866 298.969 304.241 299.464 303.884 300.215C303.525 300.96 303.489 301.868 303.776 302.937C304.052 303.967 304.533 304.709 305.218 305.162C305.904 305.616 306.688 305.724 307.571 305.487C308.471 305.246 309.083 304.77 309.408 304.058C309.739 303.345 309.76 302.45 309.472 301.375C309.181 300.288 308.713 299.516 308.068 299.058C307.43 298.598 306.66 298.489 305.76 298.73ZM317.971 303.956C316.686 304.301 315.55 304.171 314.564 303.568C313.581 302.958 312.91 301.982 312.551 300.641C312.16 299.181 312.253 297.933 312.831 296.899C313.409 295.864 314.378 295.165 315.736 294.801C317.032 294.454 318.149 294.582 319.087 295.186C320.031 295.788 320.693 296.797 321.072 298.212C321.444 299.599 321.348 300.816 320.786 301.865C320.228 302.906 319.289 303.603 317.971 303.956ZM315.948 296C315.054 296.24 314.428 296.735 314.071 297.485C313.713 298.231 313.677 299.138 313.963 300.208C314.239 301.238 314.72 301.979 315.406 302.433C316.091 302.886 316.876 302.994 317.759 302.758C318.659 302.517 319.271 302.04 319.596 301.328C319.926 300.615 319.947 299.72 319.659 298.645C319.368 297.558 318.9 296.786 318.256 296.328C317.617 295.868 316.848 295.759 315.948 296ZM331.686 300.063L329.734 300.586L324.777 297.438L324.743 297.447L325.862 301.624L324.47 301.997L321.021 289.126L322.414 288.753L324.6 296.912L324.634 296.903L327.217 291.943L329.043 291.454L326.134 296.728L331.686 300.063ZM330.905 288.589C330.656 288.656 330.421 288.628 330.2 288.505C329.979 288.382 329.833 288.191 329.764 287.93C329.694 287.67 329.724 287.431 329.854 287.215C329.982 286.992 330.171 286.848 330.42 286.781C330.675 286.713 330.913 286.743 331.136 286.871C331.363 286.992 331.511 287.183 331.58 287.444C331.647 287.693 331.614 287.929 331.479 288.153C331.351 288.376 331.159 288.521 330.905 288.589ZM334.505 299.308L333.112 299.681L330.783 290.988L332.175 290.614L334.505 299.308ZM344.539 296.619L343.147 296.992L341.819 292.034C341.324 290.189 340.404 289.447 339.057 289.808C338.36 289.995 337.854 290.412 337.536 291.062C337.223 291.704 337.173 292.424 337.387 293.222L338.716 298.18L337.323 298.553L334.994 289.859L336.386 289.486L336.773 290.929L336.807 290.92C337.169 289.646 337.973 288.843 339.218 288.509C340.169 288.254 340.979 288.368 341.648 288.85C342.315 289.326 342.804 290.144 343.115 291.305L344.539 296.619ZM354.405 293.23C355.26 296.422 354.159 298.427 351.103 299.246C350.028 299.534 349.034 299.582 348.121 299.39L347.748 297.998C348.872 298.279 349.879 298.3 350.768 298.062C352.907 297.489 353.672 296.065 353.062 293.789L352.807 292.839L352.774 292.848C352.409 294.134 351.561 294.956 350.231 295.312C349.15 295.602 348.175 295.451 347.307 294.858C346.443 294.259 345.836 293.308 345.487 292.007C345.091 290.529 345.131 289.26 345.604 288.199C346.084 287.136 346.941 286.44 348.175 286.109C349.346 285.795 350.341 286.032 351.158 286.82L351.192 286.811L350.869 285.605L352.262 285.232L354.405 293.23ZM352.146 290.368L351.802 289.086C351.617 288.396 351.224 287.867 350.622 287.501C350.026 287.133 349.38 287.042 348.684 287.228C347.823 287.459 347.234 287.953 346.916 288.712C346.596 289.465 346.587 290.405 346.888 291.531C347.148 292.499 347.588 293.212 348.208 293.671C348.832 294.122 349.529 294.245 350.299 294.038C351.08 293.829 351.64 293.382 351.978 292.697C352.322 292.01 352.378 291.234 352.146 290.368ZM357.944 293.228C357.683 293.297 357.435 293.264 357.198 293.127C356.967 292.989 356.816 292.79 356.746 292.529C356.677 292.269 356.707 292.021 356.838 291.786C356.974 291.543 357.171 291.387 357.432 291.317C357.698 291.246 357.95 291.282 358.188 291.424C358.425 291.561 358.578 291.759 358.648 292.02C358.718 292.28 358.684 292.529 358.548 292.765C358.411 293.002 358.21 293.156 357.944 293.228ZM361.713 292.218C361.453 292.287 361.204 292.254 360.967 292.117C360.736 291.979 360.586 291.78 360.516 291.519C360.446 291.259 360.477 291.011 360.608 290.776C360.743 290.533 360.941 290.377 361.201 290.307C361.467 290.236 361.719 290.272 361.958 290.414C362.194 290.551 362.348 290.749 362.417 291.01C362.487 291.27 362.454 291.519 362.317 291.755C362.18 291.992 361.979 292.146 361.713 292.218ZM365.482 291.208C365.222 291.277 364.973 291.244 364.737 291.107C364.505 290.969 364.355 290.77 364.285 290.509C364.215 290.249 364.246 290.001 364.377 289.766C364.512 289.523 364.71 289.367 364.97 289.297C365.236 289.226 365.489 289.262 365.727 289.404C365.964 289.541 366.117 289.739 366.187 290C366.257 290.26 366.223 290.509 366.086 290.745C365.95 290.982 365.748 291.136 365.482 291.208Z" fill="#006270"/>
<path d="M123.282 325.154C122.229 326.115 120.794 326.84 118.975 327.327C116.62 327.958 114.535 327.72 112.718 326.614C110.901 325.507 109.669 323.746 109.022 321.332C108.326 318.736 108.56 316.425 109.724 314.398C110.895 312.37 112.699 311.029 115.136 310.376C116.706 309.955 118.068 309.829 119.221 309.997L119.936 312.669C118.668 312.313 117.374 312.312 116.053 312.666C114.295 313.137 113.019 314.081 112.227 315.499C111.441 316.914 111.3 318.562 111.804 320.441C112.283 322.229 113.174 323.519 114.478 324.31C115.78 325.093 117.261 325.263 118.921 324.818C120.453 324.407 121.684 323.689 122.615 322.664L123.282 325.154ZM131.46 323.982C129.672 324.461 128.097 324.304 126.736 323.512C125.381 322.711 124.464 321.416 123.985 319.627C123.463 317.68 123.61 316.011 124.426 314.62C125.25 313.226 126.605 312.277 128.492 311.771C130.303 311.286 131.857 311.44 133.153 312.233C134.449 313.026 135.35 314.366 135.856 316.252C136.351 318.101 136.201 319.731 135.406 321.141C134.617 322.541 133.302 323.488 131.46 323.982ZM128.894 313.908C127.868 314.183 127.153 314.759 126.749 315.635C126.345 316.512 126.312 317.58 126.649 318.841C126.975 320.056 127.534 320.933 128.325 321.473C129.115 322.006 130.016 322.136 131.027 321.865C132.061 321.588 132.761 321.033 133.128 320.198C133.502 319.362 133.52 318.31 133.18 317.042C132.838 315.767 132.295 314.857 131.551 314.312C130.814 313.766 129.928 313.631 128.894 313.908ZM150.427 318.608L147.801 319.312L146.051 312.781C145.47 310.615 144.414 309.737 142.882 310.148C142.082 310.362 141.503 310.841 141.144 311.584C140.783 312.32 140.725 313.144 140.97 314.057L142.741 320.668L140.103 321.374L136.998 309.783L139.635 309.077L140.151 311.001L140.196 310.989C140.671 309.292 141.728 308.225 143.366 307.786C144.626 307.448 145.698 307.602 146.583 308.246C147.465 308.883 148.114 309.975 148.528 311.522L150.427 318.608ZM159.721 315.985C159.276 316.379 158.635 316.688 157.798 316.912C155.549 317.515 154.135 316.737 153.557 314.579L151.801 308.025L149.865 308.544L149.313 306.483L151.249 305.965L150.53 303.282L152.956 301.831L153.875 305.261L156.648 304.518L157.2 306.578L154.427 307.321L155.98 313.117C156.164 313.804 156.42 314.261 156.748 314.488C157.076 314.716 157.53 314.752 158.111 314.596C158.556 314.477 158.907 314.245 159.163 313.902L159.721 315.985ZM166.306 304.611C165.922 304.447 165.433 304.445 164.836 304.605C164.059 304.813 163.504 305.338 163.172 306.179C162.839 307.021 162.834 308.045 163.158 309.252L164.644 314.799L162.018 315.503L158.912 303.911L161.538 303.208L162.178 305.596L162.223 305.584C162.262 304.7 162.484 303.961 162.891 303.367C163.304 302.763 163.838 302.373 164.495 302.197C164.97 302.07 165.351 302.044 165.639 302.121L166.306 304.611ZM179.495 310.819L176.948 311.502L176.463 309.691L176.418 309.703C175.99 311.306 175.002 312.314 173.455 312.729C172.316 313.034 171.339 312.965 170.524 312.52C169.717 312.073 169.177 311.34 168.904 310.321C168.317 308.133 169.236 306.52 171.659 305.482L174.97 304.073C174.527 302.421 173.521 301.805 171.951 302.225C170.57 302.595 169.452 303.404 168.598 304.652L167.982 302.355C169.011 301.303 170.325 300.562 171.925 300.134C174.853 299.349 176.703 300.398 177.475 303.281L179.495 310.819ZM175.434 305.805L173.091 306.797C172.363 307.097 171.843 307.435 171.531 307.81C171.224 308.175 171.161 308.693 171.341 309.365C171.472 309.855 171.754 310.213 172.186 310.436C172.624 310.651 173.137 310.679 173.725 310.521C174.525 310.307 175.111 309.851 175.482 309.153C175.858 308.446 175.932 307.665 175.704 306.813L175.434 305.805ZM186.998 299.067C186.614 298.903 186.124 298.901 185.528 299.06C184.751 299.269 184.196 299.793 183.863 300.635C183.531 301.476 183.526 302.501 183.85 303.708L185.336 309.254L182.71 309.958L179.604 298.367L182.23 297.663L182.87 300.052L182.915 300.04C182.954 299.156 183.176 298.417 183.583 297.823C183.995 297.219 184.53 296.829 185.186 296.653C185.662 296.525 186.043 296.5 186.331 296.577L186.998 299.067ZM198.224 293.378L196.598 308.226C196.154 310.917 194.952 312.526 192.99 313.051C192.439 313.199 191.965 313.273 191.569 313.274L190.984 311.09C191.435 311.114 191.831 311.081 192.17 310.99C193.151 310.727 193.754 310.048 193.978 308.953L194.25 306.842L186.543 296.508L189.452 295.728L194.47 303.41C194.529 303.507 194.672 303.768 194.899 304.193L194.955 304.178C194.946 303.994 194.942 303.704 194.941 303.308L195.576 294.087L198.224 293.378ZM215.548 301.026C215.104 301.42 214.463 301.729 213.625 301.953C211.376 302.556 209.963 301.778 209.384 299.62L207.628 293.066L205.693 293.585L205.141 291.524L207.076 291.006L206.357 288.323L208.783 286.872L209.702 290.302L212.476 289.559L213.028 291.619L210.254 292.362L211.807 298.158C211.991 298.845 212.247 299.302 212.575 299.529C212.903 299.757 213.358 299.793 213.939 299.637C214.384 299.518 214.734 299.286 214.99 298.943L215.548 301.026ZM223.057 299.438C221.269 299.917 219.694 299.761 218.333 298.969C216.978 298.168 216.061 296.873 215.582 295.084C215.06 293.137 215.207 291.468 216.023 290.076C216.847 288.683 218.202 287.733 220.089 287.228C221.9 286.743 223.454 286.897 224.75 287.69C226.046 288.483 226.947 289.823 227.453 291.709C227.948 293.558 227.798 295.187 227.003 296.597C226.214 297.998 224.899 298.945 223.057 299.438ZM220.491 289.365C219.465 289.64 218.75 290.215 218.346 291.092C217.942 291.969 217.909 293.037 218.246 294.297C218.572 295.512 219.13 296.39 219.922 296.93C220.712 297.462 221.612 297.593 222.624 297.322C223.657 297.045 224.358 296.489 224.725 295.655C225.099 294.819 225.117 293.767 224.777 292.499C224.435 291.224 223.892 290.314 223.148 289.769C222.411 289.222 221.525 289.088 220.491 289.365ZM240.298 292.695L240.253 292.708L242.139 299.748L239.513 300.452L234.979 283.529L237.605 282.826L238.151 284.863L238.196 284.851C238.682 283.071 239.788 281.949 241.516 281.486C242.988 281.092 244.274 281.302 245.373 282.115C246.473 282.929 247.256 284.207 247.723 285.95C248.241 287.882 248.191 289.553 247.574 290.964C246.958 292.375 245.845 293.296 244.238 293.726C242.759 294.123 241.446 293.779 240.298 292.695ZM239.005 288.141L239.39 289.578C239.616 290.423 240.076 291.068 240.77 291.514C241.471 291.957 242.236 292.067 243.067 291.844C244.04 291.584 244.701 291.002 245.05 290.1C245.404 289.188 245.399 288.053 245.035 286.695C244.73 285.555 244.231 284.734 243.538 284.233C242.851 283.721 242.066 283.584 241.183 283.82C240.248 284.071 239.582 284.605 239.186 285.423C238.798 286.239 238.738 287.145 239.005 288.141ZM257.265 290.272C255.476 290.752 253.901 290.595 252.541 289.803C251.186 289.002 250.268 287.707 249.789 285.918C249.267 283.971 249.415 282.302 250.231 280.911C251.054 279.517 252.41 278.568 254.296 278.062C256.107 277.577 257.661 277.731 258.957 278.524C260.254 279.317 261.154 280.657 261.66 282.543C262.155 284.392 262.006 286.022 261.211 287.432C260.421 288.832 259.106 289.779 257.265 290.272ZM254.699 280.199C253.672 280.474 252.957 281.05 252.553 281.926C252.149 282.803 252.116 283.871 252.454 285.131C252.779 286.346 253.338 287.224 254.13 287.764C254.919 288.296 255.82 288.427 256.831 288.156C257.865 287.879 258.565 287.324 258.932 286.489C259.306 285.653 259.324 284.601 258.984 283.333C258.642 282.058 258.099 281.148 257.355 280.603C256.618 280.056 255.733 279.922 254.699 280.199ZM268.121 285.24L268.076 285.252L269.962 292.293L267.336 292.997L262.802 276.074L265.428 275.371L265.974 277.408L266.019 277.396C266.505 275.616 267.612 274.494 269.34 274.031C270.811 273.637 272.097 273.847 273.196 274.66C274.296 275.473 275.079 276.752 275.546 278.495C276.064 280.427 276.014 282.098 275.398 283.509C274.781 284.92 273.669 285.841 272.061 286.271C270.582 286.668 269.269 286.324 268.121 285.24ZM266.828 280.685L267.213 282.123C267.44 282.968 267.9 283.613 268.593 284.058C269.294 284.501 270.06 284.612 270.89 284.389C271.863 284.128 272.524 283.547 272.873 282.645C273.227 281.733 273.222 280.598 272.858 279.239C272.553 278.1 272.054 277.279 271.361 276.777C270.674 276.266 269.889 276.128 269.007 276.365C268.071 276.616 267.405 277.15 267.01 277.968C266.622 278.783 266.561 279.689 266.828 280.685ZM289.984 281.214L287.358 281.918L286.867 280.084L286.821 280.096C286.435 281.704 285.439 282.723 283.831 283.154C281.092 283.888 279.282 282.61 278.4 279.32L276.544 272.392L279.17 271.688L280.953 278.344C281.511 280.427 282.594 281.253 284.201 280.822C284.979 280.614 285.54 280.156 285.884 279.45C286.236 278.741 286.287 277.922 286.039 276.994L284.252 270.327L286.878 269.623L289.984 281.214ZM296.051 279.588L293.414 280.295L288.816 263.135L291.453 262.428L296.051 279.588ZM308.378 276.285L305.831 276.968L305.346 275.157L305.301 275.169C304.873 276.772 303.886 277.78 302.339 278.195C301.199 278.5 300.222 278.43 299.407 277.985C298.6 277.539 298.06 276.806 297.787 275.787C297.2 273.599 298.119 271.986 300.542 270.948L303.853 269.539C303.41 267.887 302.404 267.271 300.834 267.691C299.453 268.061 298.336 268.87 297.481 270.118L296.865 267.82C297.894 266.768 299.208 266.028 300.808 265.599C303.736 264.815 305.586 265.864 306.358 268.747L308.378 276.285ZM304.317 271.271L301.974 272.263C301.246 272.563 300.726 272.901 300.414 273.275C300.107 273.641 300.044 274.159 300.224 274.831C300.355 275.321 300.637 275.678 301.069 275.902C301.507 276.117 302.02 276.145 302.608 275.987C303.408 275.773 303.994 275.317 304.365 274.619C304.742 273.911 304.816 273.131 304.587 272.279L304.317 271.271ZM315.881 264.533C315.498 264.369 315.008 264.367 314.411 264.526C313.634 264.735 313.079 265.259 312.747 266.101C312.414 266.942 312.409 267.966 312.733 269.174L314.219 274.72L311.593 275.424L308.487 263.833L311.113 263.129L311.753 265.518L311.799 265.505C311.837 264.622 312.059 263.883 312.466 263.288C312.879 262.684 313.413 262.295 314.07 262.119C314.545 261.991 314.927 261.966 315.214 262.043L315.881 264.533ZM328.78 269.023L328.735 269.035L329.183 270.711L326.557 271.414L321.959 254.254L324.585 253.55L326.624 261.157L326.669 261.145C327.154 259.365 328.261 258.243 329.989 257.78C331.453 257.388 332.736 257.602 333.838 258.423C334.945 259.235 335.732 260.512 336.199 262.255C336.719 264.195 336.671 265.874 336.056 267.292C335.439 268.703 334.327 269.623 332.72 270.054C331.211 270.459 329.897 270.115 328.78 269.023ZM327.477 264.434L327.863 265.872C328.089 266.717 328.549 267.362 329.243 267.807C329.944 268.25 330.709 268.361 331.539 268.138C332.513 267.877 333.174 267.296 333.523 266.394C333.877 265.482 333.872 264.347 333.508 262.988C333.203 261.849 332.704 261.028 332.011 260.526C331.324 260.015 330.539 259.877 329.656 260.114C328.72 260.365 328.055 260.899 327.659 261.717C327.271 262.532 327.211 263.438 327.477 264.434ZM348.978 259.959L341.077 262.077C341.394 263.14 341.944 263.878 342.726 264.292C343.515 264.703 344.461 264.761 345.563 264.466C346.8 264.134 347.837 263.46 348.673 262.443L349.24 264.56C348.361 265.507 347.054 266.213 345.319 266.678C343.613 267.135 342.133 266.97 340.879 266.182C339.63 265.384 338.749 264.031 338.238 262.121C337.754 260.318 337.893 258.708 338.654 257.291C339.42 255.864 340.596 254.938 342.18 254.514C343.765 254.089 345.128 254.27 346.269 255.056C347.409 255.842 348.222 257.141 348.708 258.952L348.978 259.959ZM345.945 258.782C345.684 257.841 345.266 257.169 344.688 256.765C344.109 256.354 343.435 256.252 342.665 256.458C341.91 256.661 341.343 257.108 340.962 257.8C340.589 258.491 340.461 259.297 340.579 260.22L345.945 258.782ZM355.478 263.665L352.841 264.372L348.243 247.211L350.88 246.505L355.478 263.665ZM356.475 248.366C356.045 248.481 355.637 248.441 355.253 248.245C354.877 248.046 354.631 247.732 354.515 247.302C354.4 246.872 354.455 246.473 354.68 246.105C354.913 245.736 355.244 245.493 355.674 245.378C356.119 245.259 356.535 245.301 356.921 245.505C357.307 245.709 357.558 246.026 357.673 246.456C357.783 246.863 357.722 247.256 357.491 247.633C357.259 248.002 356.92 248.247 356.475 248.366ZM361.534 262.042L358.908 262.746L355.802 251.155L358.429 250.451L361.534 262.042ZM373.428 253.408L365.527 255.525C365.844 256.589 366.394 257.327 367.176 257.74C367.965 258.151 368.911 258.209 370.013 257.914C371.25 257.583 372.287 256.909 373.123 255.892L373.69 258.009C372.811 258.956 371.504 259.662 369.769 260.127C368.063 260.584 366.583 260.418 365.329 259.63C364.08 258.833 363.199 257.479 362.688 255.57C362.204 253.767 362.343 252.156 363.104 250.739C363.87 249.313 365.046 248.387 366.63 247.962C368.215 247.538 369.578 247.718 370.719 248.505C371.859 249.291 372.672 250.59 373.158 252.401L373.428 253.408ZM370.395 252.231C370.134 251.29 369.716 250.618 369.138 250.214C368.559 249.803 367.885 249.701 367.115 249.907C366.36 250.109 365.793 250.557 365.412 251.249C365.039 251.939 364.911 252.746 365.029 253.669L370.395 252.231ZM379.82 241.043C379.411 240.934 378.98 240.941 378.527 241.062C377.252 241.404 376.807 242.295 377.193 243.737L377.615 245.31L380.309 244.588L380.861 246.648L378.178 247.367L380.732 256.898L378.106 257.602L375.552 248.071L373.571 248.602L373.019 246.542L375 246.011L374.497 244.132C374.169 242.909 374.311 241.84 374.923 240.924C375.533 240 376.438 239.377 377.638 239.056C378.287 238.882 378.819 238.816 379.235 238.859L379.82 241.043ZM386.436 255.637C385.983 255.758 385.559 255.714 385.163 255.505C384.765 255.288 384.511 254.972 384.4 254.557C384.286 254.134 384.348 253.729 384.584 253.343C384.82 252.956 385.164 252.702 385.617 252.581C386.077 252.457 386.506 252.504 386.904 252.721C387.31 252.936 387.569 253.255 387.682 253.677C387.793 254.092 387.727 254.494 387.484 254.883C387.246 255.262 386.896 255.513 386.436 255.637Z" fill="#2A3950"/>
<g filter="url(#filter1_d_8_10102)">
<rect x="54.4949" y="121.729" width="310" height="180" rx="20" transform="rotate(-15 54.4949 121.729)" fill="#2A3950"/>
<rect x="53.2701" y="121.022" width="312" height="182" rx="21" transform="rotate(-15 53.2701 121.022)" stroke="white" stroke-width="2"/>
</g>
<mask id="mask0_8_10102" style="mask-type:alpha" maskUnits="userSpaceOnUse" x="58" y="45" width="339" height="247">
<rect x="54.4949" y="121.729" width="310" height="180" rx="20" transform="rotate(-15 54.4949 121.729)" fill="#2A3950"/>
</mask>
<g mask="url(#mask0_8_10102)">
<path d="M68.7073 -1.86078L279.153 -58.2495C304.914 -65.1521 331.547 -49.7754 338.449 -24.0146L394.838 186.431C401.741 212.192 386.364 238.825 360.603 245.727L150.158 302.116C124.291 308.622 97.6576 293.246 90.755 267.485L34.4725 57.4357C27.5699 31.675 42.9466 5.04179 68.7073 -1.86078Z" fill="#FFB291"/>
<path d="M361.947 65.2635L394.336 186.141C401.238 211.902 385.862 238.535 360.101 245.437L150.052 301.72C124.291 308.622 97.6577 293.246 90.7551 267.485L64.7377 170.387C94.5109 159.436 133.018 158.887 181.889 182.748C221.028 201.995 245.53 203.075 262.409 194.73L229.595 72.2673L223.254 73.9663L219.218 58.9062L225.559 57.2071L226.98 29.2163C226.845 27.1285 228.508 25.4086 230.093 24.9838C232.075 24.4529 233.979 25.217 234.906 27.0924L250.131 50.6231L256.076 49.0302L250.448 28.0253L244.107 29.7244L240.071 14.6643L246.412 12.9652L248.625 -15.238C248.491 -17.3258 250.154 -19.0457 251.739 -19.4705C253.72 -20.0015 255.624 -19.2373 256.552 -17.3619L271.777 6.16879L279.307 4.15111L283.342 19.2112L275.812 21.2289L304.272 127.442C309.911 113.613 316.45 99.9674 325.317 88.6713L311.936 38.735L305.991 40.3279L301.956 25.2678L308.297 23.5687L309.717 -4.42209C309.583 -6.50989 311.246 -8.22981 312.831 -8.65458C314.813 -9.18555 316.716 -8.42136 317.644 -6.54596L332.869 16.9847L340.399 14.9671L344.434 30.0272L336.904 32.0448L347.205 70.4878C352.145 68.3147 356.795 66.644 361.947 65.2635ZM283.95 173.666C285.401 171.153 286.851 168.641 288.302 166.128L260.904 63.878L254.959 65.4709L283.95 173.666Z" fill="#FF9378"/>
<path d="M386.264 156.02L394.335 186.141C401.238 211.901 385.861 238.535 360.1 245.437L270.532 269.437C271.579 260.661 277.615 246.725 306.787 241.457C306.787 241.457 289.121 232.598 296.75 224.607C303.876 216.326 312.532 228.024 312.532 228.024C312.532 228.024 305.404 212.518 309.813 208.363C314.328 204.605 317.444 224.159 317.444 224.159C317.444 224.159 325.855 185.8 366.181 180.941C365.389 181.154 365.288 163.34 386.264 156.02Z" fill="#8C8C2F"/>
<path d="M392.743 180.196L394.442 186.537C396.247 193.275 396.467 200.437 395.286 207.125C390.792 206.205 386.85 202.589 385.469 197.437C383.954 190.197 386.827 183.481 392.743 180.196ZM394.366 211.619C389.761 227.72 377.539 240.765 360.101 245.437L314.524 257.65C315.947 253.446 319.166 249.609 323.42 248.045C324.609 247.726 325.798 247.408 327.093 247.486C324.961 233.19 333.771 218.511 347.826 213.895C358.711 210.129 370.212 213.419 377.12 221.762C379.335 217.346 382.661 213.906 387.417 212.632C390.085 211.492 392.172 211.358 394.366 211.619Z" fill="#6B6B1E"/>
<path d="M155.686 240.317C158.461 239.573 161.37 240.918 162.799 243.083C161.398 242.609 160.103 242.531 158.914 242.85C155.347 243.806 152.92 247.429 153.479 251.103C151.894 251.527 151.024 253.035 151.448 254.62L161.544 298.64L159.166 299.277L148.617 251.981C148.192 250.395 149.063 248.888 150.648 248.463C149.692 244.896 152.12 241.272 155.686 240.317ZM166.636 246.303C167.138 246.593 167.244 246.989 167.457 247.782L167.563 248.178L167.166 248.285C166.954 247.492 166.742 246.699 166.636 246.303ZM211.306 227.537C214.08 226.794 216.989 228.138 218.419 230.304C217.017 229.83 215.722 229.752 214.533 230.071C210.966 231.026 208.539 234.65 209.099 238.323C207.513 238.748 206.643 240.256 207.068 241.841L216.633 283.879L214.255 284.516L203.84 239.307C203.415 237.722 204.286 236.215 205.871 235.79C205.312 232.117 207.739 228.493 211.306 227.537ZM222.255 233.524C222.757 233.814 222.864 234.21 223.076 235.003L223.182 235.399L222.786 235.505C222.573 234.713 222.467 234.316 222.255 233.524ZM128.022 246.455C130.796 245.712 133.705 247.056 135.135 249.222C133.733 248.747 132.438 248.67 131.249 248.988C127.682 249.944 125.255 253.568 125.815 257.241C124.229 257.666 123.359 259.173 123.784 260.759L133.455 303.193C132.556 303.009 131.657 302.825 130.865 303.038L120.556 258.225C120.132 256.64 121.002 255.132 122.587 254.708C121.631 251.141 124.059 247.517 128.022 246.455ZM138.575 252.548C139.077 252.838 139.183 253.234 139.396 254.027L139.502 254.423L139.106 254.529C139.289 253.63 139.183 253.234 138.575 252.548ZM183.747 234.072C186.522 233.329 189.43 234.673 190.86 236.839C189.459 236.365 188.164 236.287 186.975 236.605C183.408 237.561 180.981 241.185 181.54 244.858C179.955 245.283 179.085 246.79 179.509 248.376L189.393 291.603L186.619 292.346L175.886 245.948C175.461 244.363 176.331 242.856 177.916 242.431C177.357 238.758 179.678 234.738 183.747 234.072ZM194.194 239.768C194.696 240.058 194.803 240.455 195.015 241.247L195.121 241.644L194.725 241.75C195.015 241.247 194.803 240.455 194.194 239.768Z" fill="#E37165"/>
<path d="M226.96 211.449L241.997 277.083L150.051 301.72C140.143 304.375 129.782 303.753 120.765 300.222L106.79 238.552L226.96 211.449Z" fill="#FF9378"/>
<path d="M226.96 211.449L229.537 222.652L107.002 239.344L106.896 238.948L226.96 211.449Z" fill="#E37165"/>
<path d="M101.161 217.547L214.091 191.96L218.927 213.177L105.997 238.764L101.161 217.547Z" fill="white"/>
<path d="M205.784 118.151L222.018 189.835L101.954 217.334L85.6136 145.253L205.784 118.151Z" fill="#FFB291"/>
<path d="M205.784 118.151L207.724 126.976L85.8259 146.046L85.6135 145.253L205.784 118.151Z" fill="#FF9378"/>
<path d="M172.428 28.5411L188.768 100.622L93.3824 121.933L77.0418 49.852C77.4381 49.7458 77.8345 49.6396 78.2308 49.5334L171.239 28.8597C171.635 28.7535 172.031 28.6473 172.428 28.5411Z" fill="#FFCDCC"/>
<path d="M172.428 28.5416L174.261 36.9705L77.3603 51.0414L77.1479 50.2488C77.5443 50.1426 77.9406 50.0364 78.3369 49.9302L171.239 28.8602C171.635 28.754 172.031 28.6478 172.428 28.5416Z" fill="#FFBD91"/>
<path d="M155.686 240.317C159.253 239.361 163.273 241.682 163.939 245.751C165.524 245.326 167.032 246.197 167.457 247.782L177.9 294.682L158.876 299.78L148.327 252.483C147.902 250.898 148.773 249.39 150.358 248.965C149.692 244.896 152.12 241.272 155.686 240.317ZM211.306 227.537C214.873 226.582 218.893 228.903 219.558 232.972C221.144 232.547 222.651 233.418 223.076 235.003L233.278 279.419L214.255 284.516L203.84 239.307C203.415 237.722 204.286 236.215 205.871 235.79C205.312 232.117 207.739 228.493 211.306 227.537ZM128.022 246.455C131.589 245.499 135.609 247.82 136.274 251.89C137.86 251.465 139.367 252.335 139.792 253.92L150.447 301.613L150.051 301.72C143.71 303.419 137.05 303.929 130.758 302.641L120.45 257.829C120.025 256.244 120.896 254.736 122.481 254.311C121.631 251.141 124.059 247.517 128.022 246.455ZM183.747 234.072C187.314 233.116 191.334 235.437 192 239.507C193.585 239.082 195.093 239.952 195.518 241.538L206.038 287.143L186.619 292.346L175.886 245.948C175.461 244.363 176.331 242.856 177.916 242.431C177.357 238.758 179.678 234.738 183.747 234.072Z" fill="#4A283E"/>
<path d="M135.147 149.397C138.714 148.441 142.734 150.762 143.4 154.831C144.985 154.407 146.493 155.277 146.917 156.862L158.316 207.329C158.741 208.915 157.871 210.422 156.285 210.847L142.704 214.061C141.119 214.486 139.611 213.616 139.187 212.03L127.788 161.563C127.363 159.978 128.234 158.47 129.819 158.046C129.153 153.976 131.078 150.062 135.147 149.397ZM190.767 136.617C194.334 135.662 198.354 137.983 199.019 142.052C200.605 141.627 202.112 142.498 202.537 144.083L213.936 194.55C214.36 196.135 213.49 197.643 211.905 198.068L198.324 201.282C196.738 201.707 195.231 200.836 194.806 199.251L183.407 148.784C182.983 147.199 183.853 145.691 185.438 145.266C184.376 141.303 186.803 137.679 190.767 136.617ZM107.086 155.641C110.653 154.685 114.673 157.006 115.339 161.076C116.924 160.651 118.432 161.521 118.857 163.107L130.255 213.574C130.68 215.159 129.81 216.667 128.224 217.092L114.643 220.306C113.058 220.731 111.551 219.86 111.126 218.275L99.727 167.808C99.3022 166.222 100.173 164.715 101.758 164.29C101.092 160.221 103.519 156.597 107.086 155.641ZM162.706 142.862C166.273 141.906 170.293 144.227 170.958 148.297C172.544 147.872 174.051 148.742 174.476 150.327L185.875 200.795C186.299 202.38 185.429 203.887 183.844 204.312L170.263 207.527C168.677 207.951 167.17 207.081 166.745 205.496L155.346 155.028C154.922 153.443 155.792 151.936 157.377 151.511C156.712 147.441 159.139 143.818 162.706 142.862Z" fill="#4A283E"/>
<path d="M127.524 51.1928C131.091 50.237 135.111 52.5581 135.777 56.6274C137.362 56.2027 138.87 57.073 139.295 58.6583L150.693 109.126C151.118 110.711 150.248 112.218 148.663 112.643L134.975 115.461C133.39 115.886 131.882 115.015 131.458 113.43L120.059 62.963C119.634 61.3777 120.505 59.8701 122.09 59.4454C121.134 55.8785 123.561 52.2547 127.524 51.1928ZM99.4636 57.4374C103.03 56.4816 107.051 58.8026 107.716 62.872C109.301 62.4472 110.809 63.3176 111.234 64.9029L122.633 115.37C123.057 116.955 122.187 118.463 120.602 118.888L106.914 121.706C105.329 122.13 103.822 121.26 103.397 119.675L91.998 69.2075C91.5732 67.6223 92.4436 66.1147 94.0289 65.69C93.4695 62.0169 95.8967 58.3931 99.4636 57.4374ZM155.189 45.0544C158.756 44.0987 162.776 46.4197 163.442 50.489C165.027 50.0643 166.535 50.9347 166.959 52.5199L178.252 102.591C178.677 104.176 177.806 105.684 176.221 106.108L162.64 109.323C161.055 109.747 159.547 108.877 159.122 107.292L147.724 56.8246C147.299 55.2393 148.169 53.7318 149.754 53.307C149.195 49.6339 151.516 45.6138 155.189 45.0544Z" fill="#6E284B"/>
<path d="M135.148 149.397C137.922 148.653 140.831 149.998 142.261 152.163C140.859 151.689 139.564 151.611 138.375 151.93C134.808 152.886 132.381 156.509 132.941 160.182C131.355 160.607 130.485 162.115 130.91 163.7L141.218 208.513L138.84 209.15L128.078 161.06C127.654 159.475 128.524 157.968 130.109 157.543C129.154 153.976 131.078 150.062 135.148 149.397ZM146.097 155.383C146.599 155.673 146.705 156.069 146.918 156.862L147.024 157.258L146.628 157.365C146.415 156.572 146.203 155.779 146.097 155.383ZM190.767 136.617C193.541 135.874 196.45 137.218 197.88 139.384C196.479 138.91 195.183 138.832 193.995 139.151C190.428 140.106 188 143.73 188.56 147.403C186.975 147.828 186.104 149.336 186.529 150.921L196.837 195.733L194.459 196.37L183.698 148.281C183.273 146.696 184.143 145.188 185.729 144.764C184.377 141.303 186.804 137.679 190.767 136.617ZM201.716 142.604C202.219 142.894 202.325 143.29 202.537 144.083L202.643 144.479L202.247 144.585C202.035 143.793 201.822 143 201.716 142.604ZM107.087 155.641C109.861 154.898 112.77 156.242 114.2 158.408C112.798 157.934 111.503 157.856 110.314 158.174C106.747 159.13 104.32 162.754 104.88 166.427C103.294 166.852 102.424 168.359 102.849 169.945L113.157 214.757L110.779 215.394L100.018 167.305C99.5928 165.72 100.463 164.212 102.048 163.787C101.093 160.221 103.52 156.597 107.087 155.641ZM118.036 161.628C118.538 161.918 118.645 162.314 118.857 163.107L118.963 163.503L118.567 163.609C118.751 162.71 118.538 161.918 118.036 161.628ZM162.706 142.862C165.48 142.118 168.389 143.463 169.819 145.628C168.418 145.154 167.123 145.077 165.934 145.395C162.367 146.351 159.94 149.975 160.499 153.648C158.914 154.073 158.043 155.58 158.468 157.165L168.776 201.978L166.399 202.615L155.637 154.526C155.212 152.941 156.083 151.433 157.668 151.008C156.712 147.441 159.139 143.818 162.706 142.862ZM173.655 148.848C174.158 149.138 174.264 149.535 174.476 150.327L174.582 150.724L174.186 150.83C174.37 149.931 174.264 149.535 173.655 148.848Z" fill="#C45368"/>
<path d="M127.524 51.1929C130.298 50.4495 133.207 51.794 134.637 53.9595C133.235 53.4854 131.94 53.4077 130.751 53.7263C127.185 54.682 124.757 58.3058 125.317 61.9789C123.731 62.4037 122.861 63.9112 123.286 65.4965L133.835 112.793L131.457 113.43L120.058 62.9631C119.634 61.3778 120.504 59.8703 122.089 59.4455C121.134 55.8786 123.561 52.2548 127.524 51.1929ZM138.473 57.1793C138.976 57.4695 139.082 57.8658 139.294 58.6584L139.4 59.0547L139.004 59.1609C138.792 58.3683 138.579 57.5757 138.473 57.1793ZM99.463 57.4375C102.237 56.6941 105.146 58.0386 106.576 60.2041C105.175 59.73 103.879 59.6523 102.69 59.9709C99.1236 60.9266 96.6964 64.5504 97.2558 68.2235C95.6705 68.6482 94.8001 70.1558 95.2249 71.7411L106.17 118.931L103.793 119.569L92.3938 69.1015C91.969 67.5162 92.8394 66.0087 94.4247 65.5839C93.4689 62.017 95.8961 58.3932 99.463 57.4375ZM110.412 63.4239C110.915 63.7141 111.021 64.1104 111.233 64.903L111.339 65.2993L110.943 65.4055C111.127 64.5067 111.021 64.1104 110.412 63.4239ZM155.189 45.0545C157.963 44.3112 160.872 45.6556 162.301 47.8211C160.9 47.3471 159.605 47.2693 158.416 47.5879C154.849 48.5436 152.422 52.1674 152.981 55.8405C151.396 56.2653 150.526 57.7728 150.95 59.3581L161.5 106.655L159.122 107.292L147.723 56.8247C147.298 55.2394 148.169 53.7319 149.754 53.3071C149.194 49.634 151.515 45.6139 155.189 45.0545ZM166.138 51.041C166.64 51.3311 166.746 51.7274 166.959 52.52L167.065 52.9164L166.669 53.0226C166.853 52.1237 166.64 51.3311 166.138 51.041Z" fill="#E37165"/>
<path d="M103.468 289.565C112.676 298.567 124.602 303.442 137.738 303.32C140.766 294.013 145.633 275.718 137.912 272.265C127.281 267.468 116.052 292.14 116.052 292.14C116.052 292.14 121.435 263.087 109.885 262.784C101.718 262.424 100.148 275.588 103.468 289.565Z" fill="#6B6B1E"/>
<path d="M139.033 303.398C147.312 286.737 160.225 255.667 148.222 252.087C131.512 246.794 117.976 288.226 117.976 288.226C117.976 288.226 128.292 250.63 108.517 246.584C98.234 244.667 97.0679 264.094 98.3859 283.28C107.757 296.061 123.017 303.866 139.033 303.398Z" fill="#8C8C2F"/>
<path d="M139.033 303.398C140.483 300.885 141.828 297.976 143.066 294.671C144.615 286.185 144.154 276.539 136.829 272.98C129.504 269.421 124.118 274.687 120.531 280.32C118.712 284.631 117.87 287.83 117.87 287.83C117.87 287.83 118.344 286.428 118.606 284.234C116.787 288.544 115.945 291.743 115.945 291.743C115.945 291.743 117.28 258.678 107.691 262.522C102.355 264.801 99.5388 274.901 98.2797 282.884C107.864 296.458 123.017 303.866 139.033 303.398Z" fill="#6B6B1E"/>
<path d="M67.7409 29.4068L166.297 7.24646C171.556 6.26226 177.083 9.45365 178.068 14.712C179.052 19.9703 175.86 25.498 170.602 26.4822L72.0455 48.6426C66.8934 50.0231 61.762 46.7255 60.2753 41.177C59.2911 35.9187 62.4825 30.391 67.7409 29.4068Z" fill="white"/>
<path d="M94.3673 215.969L224.948 186.502C230.999 185.306 236.633 188.893 238.226 194.838C239.422 200.889 235.834 206.523 229.89 208.116L99.2029 237.186C93.1519 238.383 87.5181 234.795 85.9252 228.85C84.4385 223.302 88.3163 217.166 94.3673 215.969Z" fill="white"/>
<path d="M96.6956 218.318L227.276 188.852C233.327 187.655 238.961 191.243 240.554 197.187C241.75 203.238 238.163 208.872 232.218 210.465L101.637 239.932C95.5864 241.129 89.9526 237.541 88.3597 231.596C87.1631 225.545 90.7508 219.911 96.6956 218.318Z" fill="#C45368"/>
<path d="M96.6956 218.318L123.568 212.392C129.619 211.196 135.252 214.784 136.845 220.728C138.042 226.779 134.454 232.413 128.509 234.006L101.637 239.932C95.5864 241.129 89.9526 237.541 88.3597 231.596C87.1631 225.545 90.7508 219.911 96.6956 218.318Z" fill="#E37165"/>
<path d="M76.3898 123.513L200.919 95.2425C206.574 94.1521 212.208 97.7398 213.695 103.288C214.785 108.943 211.197 114.577 205.649 116.063L81.1192 144.334C75.4646 145.424 69.8308 141.836 68.344 136.288C67.2537 130.633 70.8414 124.999 76.3898 123.513Z" fill="white"/>
<path d="M78.6119 125.466L203.141 97.1955C208.796 96.1051 214.43 99.6928 215.917 105.241C217.007 110.896 213.419 116.53 207.871 118.016L83.2351 145.89C77.5804 146.981 71.9466 143.393 70.4599 137.845C69.3695 132.19 72.9572 126.556 78.6119 125.466Z" fill="#C45368"/>
<path d="M78.6121 125.466L105.088 119.646C110.742 118.556 116.773 122.037 117.863 127.692C119.06 133.743 115.472 139.377 109.817 140.467L83.7379 146.181C77.6869 147.377 72.053 143.789 70.9626 138.135C69.0796 132.692 72.5611 126.662 78.6121 125.466Z" fill="#E37165"/>
<path d="M71.1519 31.0414L169.708 8.88097C174.967 7.89678 180.494 11.0882 181.479 16.3465C182.463 21.6049 179.271 27.1325 174.013 28.1167L75.4566 50.2771C70.1982 51.2613 64.6706 48.0699 63.6864 42.8115C62.3059 37.6594 65.4973 32.1318 71.1519 31.0414Z" fill="#C45368"/>
<path d="M69.9627 31.3599L93.9542 25.781C99.2126 24.7968 104.74 27.9882 105.724 33.2465C107.211 38.795 103.914 43.9263 98.3651 45.413L74.3735 50.992C69.1152 51.9762 63.5876 48.7848 62.6034 43.5264C61.1167 37.978 64.7044 32.3441 69.9627 31.3599Z" fill="#E37165"/>
<path d="M276.071 149.016C276.071 149.016 268.434 150.638 262.943 155.507C262.943 155.507 258.073 150.016 250.409 149.946C250.409 149.946 257.04 147.744 262.964 150.829C262.964 150.829 269.383 147.835 276.071 149.016Z" fill="white"/>
<path d="M298.262 119.283C298.262 119.283 293.11 120.663 288.885 123.919C288.885 123.919 285.339 120.197 280.159 119.886C280.159 119.886 284.808 118.215 288.828 120.536C288.828 120.536 293.372 118.469 298.262 119.283Z" fill="white"/>
<path d="M48.9978 92.6227C48.9978 92.6227 54.15 91.2422 59.4368 91.9495C59.4368 91.9495 60.6466 86.9528 64.9776 84.0932C64.9776 84.0932 60.1156 84.9712 57.7946 88.9913C57.7946 88.9913 52.43 89.5792 48.9978 92.6227Z" fill="white"/>
</g>
<defs>
<filter id="filter0_d_8_10102" x="0.48999" y="0.90332" width="481.987" height="466.43" filterUnits="userSpaceOnUse" color-interpolation-filters="sRGB">
<feFlood flood-opacity="0" result="BackgroundImageFix"/>
<feColorMatrix in="SourceAlpha" type="matrix" values="0 0 0 0 0 0 0 0 0 0 0 0 0 0 0 0 0 0 127 0" result="hardAlpha"/>
<feOffset dy="14"/>
<feGaussianBlur stdDeviation="17"/>
<feComposite in2="hardAlpha" operator="out"/>
<feColorMatrix type="matrix" values="0 0 0 0 0 0 0 0 0 0 0 0 0 0 0 0 0 0 0.2 0"/>
<feBlend mode="normal" in2="BackgroundImageFix" result="effect1_dropShadow_8_10102"/>
<feBlend mode="normal" in="SourceGraphic" in2="effect1_dropShadow_8_10102" result="shape"/>
</filter>
<filter id="filter1_d_8_10102" x="36.9844" y="31.9843" width="381.045" height="289.122" filterUnits="userSpaceOnUse" color-interpolation-filters="sRGB">
<feFlood flood-opacity="0" result="BackgroundImageFix"/>
<feColorMatrix in="SourceAlpha" type="matrix" values="0 0 0 0 0 0 0 0 0 0 0 0 0 0 0 0 0 0 127 0" result="hardAlpha"/>
<feOffset dy="8"/>
<feGaussianBlur stdDeviation="10"/>
<feComposite in2="hardAlpha" operator="out"/>
<feColorMatrix type="matrix" values="0 0 0 0 0 0 0 0 0 0 0 0 0 0 0 0 0 0 0.15 0"/>
<feBlend mode="normal" in2="BackgroundImageFix" result="effect1_dropShadow_8_10102"/>
<feBlend mode="normal" in="SourceGraphic" in2="effect1_dropShadow_8_10102" result="shape"/>
</filter>
</defs>
</svg>
