<svg width="483" height="467" viewBox="0 0 483 467" fill="none" xmlns="http://www.w3.org/2000/svg">
<g filter="url(#filter0_d_9_10246)">
<rect x="115" y="16" width="350" height="328" rx="20" transform="rotate(15 115 16)" fill="white"/>
</g>
<rect x="275.836" y="346.903" width="89" height="30" rx="5" transform="rotate(15 275.836 346.903)" fill="#00E0C7"/>
<path d="M294.355 362.836L289.385 370.203L287.313 369.648L286.726 360.792L288.695 361.32L288.874 367.422C288.883 367.751 288.865 368.036 288.822 368.275L288.855 368.284C288.95 368.038 289.082 367.777 289.254 367.499L292.442 362.324L294.355 362.836ZM295.683 364.696C295.381 364.615 295.157 364.461 295.013 364.232C294.869 363.999 294.832 363.752 294.901 363.492C294.973 363.224 295.128 363.031 295.366 362.913C295.604 362.795 295.874 362.776 296.176 362.857C296.481 362.939 296.706 363.09 296.849 363.31C296.996 363.532 297.033 363.776 296.961 364.044C296.889 364.316 296.733 364.513 296.494 364.635C296.259 364.758 295.988 364.778 295.683 364.696ZM294.767 371.645L292.979 371.166L294.531 365.371L296.32 365.85L294.767 371.645ZM302.119 371.056L298.339 370.042C298.174 370.9 298.591 371.463 299.591 371.731C300.229 371.902 300.829 371.901 301.393 371.728L301.047 373.019C300.435 373.162 299.7 373.119 298.844 372.889C297.908 372.639 297.251 372.186 296.872 371.53C296.495 370.871 296.431 370.077 296.679 369.149C296.937 368.187 297.421 367.499 298.13 367.087C298.839 366.674 299.601 366.577 300.416 366.796C301.261 367.022 301.847 367.448 302.172 368.073C302.502 368.699 302.552 369.443 302.321 370.303L302.119 371.056ZM300.755 369.513C300.978 368.683 300.753 368.178 300.082 367.998C299.795 367.921 299.514 367.973 299.239 368.155C298.968 368.337 298.762 368.599 298.622 368.941L300.755 369.513ZM312.49 370.182L309.267 375.531L307.388 375.027L307.443 371.402C307.448 371.161 307.482 370.905 307.546 370.635L307.512 370.626C307.407 370.913 307.305 371.143 307.206 371.314L305.373 374.487L303.517 373.99L303.434 367.756L305.257 368.244L305.042 372.239C305.032 372.426 305.002 372.649 304.954 372.907L304.988 372.916C305.077 372.657 305.171 372.443 305.268 372.275L307.271 368.784L308.975 369.241L308.856 373.261C308.854 373.361 308.821 373.587 308.76 373.939L308.799 373.949C308.877 373.736 308.966 373.525 309.066 373.317L310.831 369.738L312.49 370.182ZM324.418 379.59L322.613 379.107L323.914 374.251C324.055 373.726 324.232 373.153 324.447 372.531L324.402 372.519C324.174 372.992 323.993 373.328 323.859 373.526L320.479 378.535L318.985 378.135L318.513 372.154C318.499 371.993 318.516 371.593 318.561 370.954L318.51 370.94C318.345 371.753 318.182 372.462 318.02 373.066L316.817 377.554L315.17 377.112L317.345 368.996L320.022 369.714L320.391 374.969C320.42 375.389 320.413 375.802 320.369 376.206L320.403 376.215C320.625 375.794 320.837 375.432 321.04 375.13L323.984 370.775L326.593 371.474L324.418 379.59ZM328.812 380.919C327.846 380.66 327.158 380.187 326.748 379.499C326.343 378.808 326.264 377.998 326.513 377.07C326.77 376.112 327.257 375.44 327.975 375.054C328.694 374.664 329.543 374.6 330.52 374.862C331.482 375.12 332.164 375.594 332.565 376.284C332.968 376.97 333.05 377.758 332.811 378.649C332.554 379.611 332.067 380.295 331.351 380.702C330.639 381.11 329.793 381.182 328.812 380.919ZM330.119 376.223C329.696 376.109 329.329 376.167 329.017 376.394C328.706 376.622 328.478 377.002 328.336 377.534C328.038 378.647 328.338 379.324 329.236 379.565C330.092 379.794 330.673 379.337 330.98 378.194C331.27 377.111 330.983 376.454 330.119 376.223ZM338.075 378.767C337.892 378.592 337.656 378.467 337.37 378.39C336.981 378.286 336.639 378.348 336.343 378.576C336.048 378.8 335.835 379.158 335.704 379.648L334.962 382.416L333.174 381.936L334.727 376.141L336.515 376.62L336.227 377.695L336.25 377.702C336.743 376.993 337.358 376.737 338.093 376.934C338.282 376.984 338.423 377.046 338.517 377.12L338.075 378.767ZM343.639 382.181L339.858 381.168C339.693 382.025 340.111 382.588 341.111 382.856C341.748 383.027 342.349 383.026 342.913 382.854L342.567 384.144C341.954 384.287 341.22 384.244 340.363 384.015C339.428 383.764 338.771 383.311 338.392 382.655C338.015 381.996 337.95 381.202 338.199 380.274C338.457 379.312 338.94 378.625 339.649 378.212C340.359 377.8 341.121 377.702 341.936 377.921C342.781 378.147 343.366 378.573 343.692 379.198C344.022 379.824 344.071 380.568 343.841 381.428L343.639 382.181ZM342.275 380.638C342.497 379.808 342.273 379.303 341.601 379.123C341.314 379.046 341.034 379.099 340.759 379.28C340.487 379.462 340.282 379.724 340.141 380.067L342.275 380.638Z" fill="#2A3950"/>
<rect x="62.7205" y="290.316" width="88" height="29" rx="4.5" transform="rotate(15 62.7205 290.316)" stroke="#006270"/>
<path d="M73.0024 312.224L75.1771 304.108L77.4862 304.726C78.188 304.914 78.6986 305.235 79.0179 305.689C79.3371 306.142 79.423 306.645 79.2754 307.196C79.152 307.656 78.9203 308.022 78.5803 308.295C78.2403 308.568 77.8322 308.718 77.3561 308.744L77.3501 308.766C77.88 308.977 78.2621 309.302 78.4963 309.741C78.7315 310.176 78.7744 310.673 78.6247 311.231C78.4387 311.925 78.039 312.421 77.4257 312.717C76.8124 313.014 76.1266 313.061 75.3682 312.858L73.0024 312.224ZM75.8974 305.223L75.1952 307.843L76.1687 308.104C76.6894 308.244 77.1322 308.229 77.497 308.06C77.8628 307.887 78.1069 307.572 78.2292 307.115C78.4405 306.327 78.0273 305.793 76.9897 305.515L75.8974 305.223ZM74.9663 308.698L74.1837 311.618L75.4741 311.964C76.0326 312.114 76.5 312.097 76.8764 311.915C77.2566 311.734 77.5083 311.413 77.6317 310.953C77.8884 309.994 77.3641 309.34 76.0586 308.991L74.9663 308.698ZM82.8818 315.017C81.731 314.708 80.9101 314.082 80.419 313.137C79.9318 312.194 79.8509 311.115 80.1765 309.9C80.5263 308.594 81.1581 307.647 82.0719 307.059C82.9858 306.471 84.0502 306.34 85.2651 306.665C86.3858 306.965 87.1864 307.584 87.6672 308.522C88.1517 309.461 88.2307 310.539 87.9041 311.758C87.5492 313.082 86.9178 314.035 86.0097 314.617C85.1017 315.199 84.059 315.332 82.8818 315.017ZM84.9667 307.507C84.114 307.279 83.3392 307.401 82.6424 307.873C81.9456 308.346 81.4632 309.082 81.1953 310.082C80.9274 311.082 80.97 311.957 81.3231 312.706C81.6811 313.453 82.277 313.938 83.1108 314.162C84.0013 314.401 84.7809 314.298 85.4498 313.854C86.1186 313.411 86.5931 312.667 86.8731 311.621C87.1602 310.55 87.1331 309.655 86.7918 308.937C86.4504 308.218 85.8421 307.742 84.9667 307.507ZM91.6204 317.358C90.4696 317.05 89.6487 316.423 89.1577 315.479C88.6704 314.535 88.5895 313.456 88.9151 312.241C89.2649 310.936 89.8967 309.989 90.8105 309.401C91.7244 308.813 92.7888 308.681 94.0037 309.007C95.1244 309.307 95.9251 309.926 96.4058 310.864C96.8903 311.802 96.9693 312.881 96.6427 314.1C96.2879 315.424 95.6564 316.377 94.7483 316.959C93.8403 317.54 92.7977 317.673 91.6204 317.358ZM93.7053 309.849C92.8526 309.62 92.0778 309.742 91.381 310.215C90.6842 310.687 90.2018 311.423 89.9339 312.423C89.666 313.423 89.7086 314.298 90.0617 315.048C90.4197 315.795 91.0156 316.28 91.8494 316.503C92.7399 316.742 93.5195 316.64 94.1884 316.196C94.8572 315.752 95.3317 315.008 95.6117 313.963C95.8989 312.891 95.8717 311.996 95.5304 311.278C95.189 310.56 94.5807 310.083 93.7053 309.849ZM102.773 320.201L101.448 319.846L99.3075 315.293C99.2279 315.122 99.1815 315.008 99.1683 314.952L99.1456 314.946L98.075 318.942L97.1241 318.687L99.2988 310.571L100.25 310.826L99.2275 314.641L99.2501 314.647C99.3252 314.578 99.4217 314.505 99.5395 314.427L103.521 311.702L104.704 312.019L100.18 314.981L102.773 320.201ZM105.792 321.155C104.989 320.94 104.453 320.426 104.185 319.615C103.921 318.804 103.964 317.746 104.314 316.44C104.698 315.006 105.223 313.984 105.888 313.374C106.557 312.765 107.334 312.579 108.221 312.816C109.919 313.271 110.396 314.885 109.653 317.659C109.285 319.032 108.765 320.017 108.091 320.613C107.419 321.205 106.653 321.386 105.792 321.155ZM107.959 313.589C106.801 313.279 105.907 314.299 105.277 316.65C104.689 318.846 104.962 320.096 106.098 320.4C107.218 320.7 108.078 319.734 108.677 317.5C109.296 315.187 109.057 313.883 107.959 313.589ZM110.013 321.929L110.277 320.944C110.736 321.451 111.252 321.781 111.826 321.935C112.399 322.089 112.905 322.05 113.343 321.82C113.78 321.589 114.071 321.206 114.215 320.67C114.357 320.138 114.289 319.675 114.011 319.281C113.732 318.887 113.259 318.6 112.591 318.421C112.365 318.361 111.934 318.27 111.299 318.148L112.39 314.079L116.318 315.131L116.093 315.969L113.043 315.152L112.406 317.529C112.659 317.58 112.891 317.634 113.102 317.691C113.97 317.924 114.583 318.322 114.941 318.887C115.3 319.449 115.378 320.109 115.175 320.867C114.965 321.652 114.539 322.215 113.897 322.557C113.259 322.899 112.495 322.951 111.605 322.713C110.854 322.512 110.324 322.25 110.013 321.929ZM118.289 324.504C117.485 324.289 116.95 323.775 116.682 322.963C116.418 322.152 116.461 321.094 116.811 319.789C117.195 318.355 117.719 317.333 118.384 316.722C119.053 316.113 119.831 315.927 120.718 316.165C122.416 316.62 122.893 318.234 122.15 321.007C121.782 322.38 121.261 323.365 120.588 323.961C119.916 324.553 119.149 324.734 118.289 324.504ZM120.456 316.938C119.298 316.627 118.403 317.647 117.774 319.998C117.185 322.194 117.459 323.444 118.595 323.749C119.715 324.049 120.575 323.082 121.173 320.848C121.793 318.536 121.554 317.232 120.456 316.938ZM124.366 322.699L123.544 325.766L122.593 325.511L124.768 317.395L126.997 317.993C127.865 318.225 128.48 318.617 128.842 319.167C129.208 319.718 129.288 320.378 129.082 321.148C128.876 321.918 128.441 322.476 127.778 322.824C127.118 323.173 126.337 323.227 125.435 322.985L124.366 322.699ZM125.488 318.51L124.596 321.838L125.592 322.105C126.249 322.281 126.789 322.266 127.212 322.06C127.64 321.851 127.927 321.473 128.074 320.926C128.361 319.855 127.871 319.149 126.603 318.809L125.488 318.51Z" fill="#006270"/>
<path d="M77.8114 274.071C76.8954 277.489 74.8951 278.785 71.8106 277.959C68.8562 277.167 67.8196 275.127 68.7007 271.839L70.6957 264.393L72.1219 264.776L70.1519 272.128C69.4832 274.624 70.2015 276.154 72.3069 276.718C74.3387 277.262 75.6777 276.329 76.3237 273.918L78.3278 266.439L79.754 266.821L77.8114 274.071ZM81.1159 278.887L81.082 278.878L79.6739 284.133L78.2816 283.76L81.6824 271.068L83.0747 271.441L82.6652 272.969L82.6992 272.978C83.6934 272.007 84.8498 271.698 86.1685 272.052C87.2892 272.352 88.0589 272.977 88.4779 273.926C88.8984 274.87 88.9334 275.995 88.5831 277.303C88.1934 278.757 87.5272 279.828 86.5847 280.516C85.6437 281.198 84.5591 281.375 83.331 281.046C82.2047 280.744 81.4663 280.024 81.1159 278.887ZM82.0214 275.372L81.6961 276.586C81.5036 277.305 81.5718 277.978 81.9009 278.606C82.2372 279.23 82.7648 279.638 83.4836 279.831C84.3269 280.057 85.0727 279.911 85.721 279.393C86.3749 278.877 86.8558 278.044 87.1637 276.895C87.423 275.927 87.4027 275.109 87.1027 274.44C86.8026 273.771 86.2706 273.335 85.5065 273.13C84.6972 272.913 83.9705 273.022 83.3265 273.456C82.6839 273.884 82.2489 274.523 82.0214 275.372ZM93.6298 283.496C93.253 283.589 92.7957 283.563 92.2581 283.419C90.7356 283.011 90.2018 281.959 90.6568 280.261L92.0353 275.116L90.5411 274.716L90.8596 273.527L92.3538 273.927L92.9225 271.805L94.4353 271.728L93.7461 274.3L95.9364 274.887L95.6179 276.076L93.4276 275.489L92.1151 280.387C91.9589 280.97 91.9464 281.413 92.0778 281.715C92.2092 282.017 92.5041 282.23 92.9625 282.352C93.3134 282.447 93.642 282.431 93.9482 282.307L93.6298 283.496ZM99.0452 285.256C97.7604 284.912 96.8416 284.232 96.2887 283.216C95.7431 282.197 95.6499 281.016 96.0093 279.675C96.4006 278.215 97.1052 277.181 98.1231 276.574C99.141 275.967 100.329 275.846 101.687 276.21C102.984 276.557 103.887 277.227 104.398 278.219C104.914 279.213 104.982 280.417 104.603 281.832C104.232 283.219 103.54 284.225 102.529 284.852C101.525 285.475 100.364 285.61 99.0452 285.256ZM101.272 277.354C100.377 277.115 99.5881 277.231 98.9036 277.702C98.2207 278.168 97.7359 278.936 97.4492 280.006C97.1732 281.036 97.2188 281.919 97.5859 282.654C97.953 283.389 98.5781 283.875 99.461 284.112C100.361 284.353 101.129 284.247 101.767 283.793C102.41 283.34 102.875 282.576 103.163 281.501C103.455 280.414 103.436 279.511 103.107 278.792C102.783 278.075 102.172 277.595 101.272 277.354ZM110.488 287.785L110.883 286.308C111.571 287.069 112.345 287.564 113.206 287.795C114.066 288.025 114.824 287.968 115.481 287.622C116.138 287.276 116.574 286.702 116.789 285.898C117.003 285.1 116.901 284.405 116.483 283.814C116.065 283.223 115.356 282.793 114.354 282.525C114.014 282.434 113.368 282.297 112.416 282.115L114.052 276.011L119.944 277.589L119.607 278.846L115.031 277.62L114.076 281.185C114.455 281.263 114.804 281.344 115.121 281.429C116.422 281.778 117.342 282.376 117.879 283.224C118.418 284.066 118.535 285.055 118.23 286.193C117.914 287.37 117.276 288.215 116.313 288.728C115.357 289.242 114.21 289.32 112.875 288.962C111.748 288.66 110.953 288.268 110.488 287.785ZM122.901 291.648C121.695 291.325 120.892 290.555 120.49 289.337C120.094 288.121 120.159 286.534 120.683 284.576C121.26 282.425 122.046 280.892 123.044 279.976C124.047 279.062 125.214 278.783 126.544 279.14C129.091 279.822 129.807 282.243 128.692 286.403C128.14 288.463 127.359 289.94 126.349 290.834C125.341 291.723 124.191 291.994 122.901 291.648ZM126.151 280.299C124.414 279.834 123.072 281.364 122.128 284.89C121.245 288.184 121.656 290.059 123.359 290.515C125.04 290.966 126.329 289.516 127.227 286.165C128.157 282.696 127.798 280.74 126.151 280.299ZM132.817 287.581C131.979 287.357 131.385 286.903 131.034 286.221C130.685 285.533 130.633 284.727 130.881 283.805C131.151 282.797 131.626 282.076 132.307 281.639C132.99 281.197 133.778 281.096 134.672 281.336C135.538 281.568 136.137 282.016 136.468 282.681C136.805 283.348 136.843 284.168 136.582 285.141C136.322 286.115 135.843 286.824 135.148 287.269C134.46 287.709 133.683 287.813 132.817 287.581ZM134.371 282.256C133.833 282.112 133.355 282.199 132.936 282.518C132.519 282.83 132.217 283.335 132.03 284.031C131.847 284.716 131.856 285.292 132.059 285.758C132.263 286.219 132.628 286.52 133.154 286.661C133.686 286.804 134.155 286.717 134.561 286.402C134.968 286.086 135.265 285.577 135.453 284.875C135.636 284.19 135.629 283.618 135.43 283.159C135.239 282.695 134.886 282.394 134.371 282.256ZM142.602 283.661L131.507 293.827L130.293 293.502L141.38 283.333L142.602 283.661ZM138.39 295.781C137.553 295.556 136.959 295.1 136.61 294.412C136.26 293.724 136.209 292.921 136.454 292.004C136.724 290.997 137.203 290.273 137.891 289.833C138.581 289.386 139.367 289.282 140.25 289.518C141.111 289.749 141.709 290.2 142.044 290.872C142.38 291.545 142.416 292.37 142.154 293.349C141.894 294.317 141.417 295.023 140.722 295.468C140.033 295.908 139.256 296.013 138.39 295.781ZM139.942 290.464C139.399 290.318 138.919 290.402 138.501 290.715C138.089 291.029 137.79 291.537 137.602 292.239C137.421 292.912 137.432 293.483 137.635 293.949C137.839 294.41 138.204 294.711 138.73 294.852C139.262 294.995 139.731 294.908 140.137 294.593C140.545 294.271 140.842 293.762 141.029 293.066C141.214 292.376 141.206 291.803 141.006 291.35C140.812 290.897 140.457 290.602 139.942 290.464ZM151.749 299.378C150.464 299.034 149.545 298.354 148.992 297.338C148.446 296.319 148.353 295.138 148.713 293.797C149.104 292.336 149.809 291.303 150.826 290.696C151.844 290.089 153.032 289.968 154.391 290.332C155.687 290.679 156.59 291.349 157.101 292.341C157.617 293.335 157.686 294.539 157.307 295.954C156.935 297.34 156.244 298.347 155.233 298.974C154.229 299.597 153.067 299.731 151.749 299.378ZM153.975 291.476C153.081 291.236 152.291 291.353 151.607 291.824C150.924 292.29 150.439 293.058 150.153 294.128C149.877 295.158 149.922 296.041 150.289 296.776C150.656 297.511 151.281 297.997 152.164 298.234C153.064 298.475 153.833 298.368 154.47 297.914C155.113 297.462 155.579 296.698 155.867 295.623C156.158 294.536 156.139 293.633 155.81 292.914C155.487 292.197 154.875 291.717 153.975 291.476ZM165.774 290.434C165.543 290.208 165.255 290.049 164.91 289.957C163.936 289.696 163.285 290.179 162.956 291.408L162.597 292.749L164.634 293.295L164.316 294.483L162.278 293.937L160.267 301.442L158.883 301.071L160.894 293.567L159.409 293.169L159.727 291.98L161.213 292.378L161.59 290.969C161.835 290.058 162.29 289.409 162.958 289.024C163.627 288.633 164.354 288.543 165.141 288.754C165.566 288.868 165.889 289.009 166.11 289.177L165.774 290.434ZM171.224 291.894C170.993 291.669 170.705 291.509 170.36 291.417C169.387 291.156 168.735 291.64 168.406 292.868L168.047 294.209L170.084 294.755L169.766 295.944L167.728 295.398L165.718 302.903L164.334 302.532L166.345 295.027L164.859 294.629L165.177 293.44L166.663 293.839L167.041 292.429C167.285 291.518 167.741 290.87 168.408 290.484C169.077 290.093 169.805 290.003 170.591 290.214C171.016 290.328 171.339 290.469 171.561 290.638L171.224 291.894ZM179.068 306.698C177.342 306.236 176.11 305.296 175.374 303.879C174.643 302.464 174.522 300.846 175.01 299.023C175.535 297.065 176.482 295.645 177.853 294.762C179.224 293.88 180.821 293.683 182.643 294.171C184.324 294.622 185.525 295.55 186.246 296.957C186.973 298.365 187.091 299.983 186.601 301.811C186.069 303.797 185.122 305.227 183.76 306.099C182.398 306.972 180.834 307.171 179.068 306.698ZM182.195 295.434C180.916 295.092 179.754 295.275 178.709 295.983C177.664 296.692 176.94 297.796 176.538 299.296C176.136 300.796 176.2 302.108 176.73 303.233C177.267 304.353 178.161 305.081 179.411 305.416C180.747 305.774 181.917 305.621 182.92 304.955C183.923 304.29 184.635 303.173 185.055 301.606C185.486 299.998 185.445 298.656 184.933 297.578C184.421 296.501 183.508 295.786 182.195 295.434ZM194.353 310.575L192.961 310.202L194.289 305.244C194.783 303.399 194.357 302.296 193.01 301.935C192.314 301.749 191.666 301.857 191.067 302.261C190.474 302.66 190.071 303.259 189.857 304.057L188.529 309.015L187.137 308.642L189.466 299.949L190.858 300.322L190.472 301.765L190.506 301.774C191.456 300.852 192.554 300.558 193.799 300.891C194.75 301.146 195.395 301.649 195.733 302.401C196.073 303.148 196.088 304.101 195.777 305.261L194.353 310.575ZM213.117 302.555L207.045 309.154L205.839 313.653L204.413 313.271L205.61 308.806L203.761 300.048L205.383 300.483L206.634 306.714C206.65 306.791 206.682 307.067 206.731 307.541L206.756 307.548C206.865 307.371 207.039 307.15 207.279 306.887L211.606 302.15L213.117 302.555ZM214.945 316.311C213.66 315.967 212.741 315.287 212.189 314.272C211.643 313.252 211.55 312.071 211.909 310.73C212.3 309.27 213.005 308.236 214.023 307.63C215.041 307.023 216.229 306.901 217.587 307.265C218.883 307.613 219.787 308.282 220.297 309.274C220.814 310.268 220.882 311.472 220.503 312.887C220.131 314.274 219.44 315.281 218.429 315.907C217.425 316.53 216.264 316.665 214.945 316.311ZM217.171 308.409C216.277 308.17 215.488 308.286 214.803 308.758C214.12 309.224 213.636 309.992 213.349 311.061C213.073 312.091 213.119 312.974 213.486 313.709C213.853 314.445 214.478 314.931 215.361 315.167C216.261 315.408 217.029 315.302 217.667 314.848C218.309 314.395 218.775 313.631 219.063 312.556C219.354 311.469 219.335 310.566 219.006 309.847C218.683 309.13 218.071 308.651 217.171 308.409ZM228.583 319.747L227.191 319.374L227.559 317.999L227.525 317.99C226.666 318.888 225.631 319.175 224.419 318.85C222.348 318.295 221.643 316.784 222.304 314.316L223.696 309.12L225.08 309.491L223.747 314.466C223.256 316.3 223.712 317.405 225.115 317.781C225.794 317.963 226.419 317.863 226.988 317.482C227.564 317.097 227.961 316.499 228.178 315.69L229.52 310.681L230.912 311.054L228.583 319.747ZM237.887 314.433C237.693 314.181 237.367 313.994 236.909 313.871C236.315 313.712 235.742 313.858 235.19 314.311C234.643 314.765 234.24 315.476 233.981 316.444L232.794 320.876L231.401 320.503L233.731 311.809L235.123 312.182L234.643 313.974L234.677 313.983C235.039 313.425 235.469 313.03 235.968 312.8C236.468 312.564 236.969 312.513 237.473 312.648C237.835 312.745 238.102 312.859 238.273 312.99L237.887 314.433ZM243.98 322.526L243.946 322.517L243.609 323.774L242.217 323.401L245.666 310.53L247.058 310.904L245.529 316.609L245.563 316.618C246.558 315.647 247.714 315.338 249.033 315.691C250.148 315.99 250.915 316.614 251.334 317.563C251.76 318.508 251.798 319.635 251.447 320.942C251.058 322.397 250.391 323.468 249.449 324.156C248.508 324.838 247.423 325.014 246.195 324.685C245.046 324.377 244.308 323.658 243.98 322.526ZM244.886 319.011L244.56 320.225C244.368 320.944 244.436 321.617 244.765 322.245C245.101 322.869 245.629 323.278 246.348 323.47C247.191 323.696 247.937 323.55 248.585 323.032C249.239 322.516 249.72 321.683 250.028 320.535C250.287 319.567 250.267 318.748 249.967 318.08C249.667 317.411 249.135 316.974 248.371 316.769C247.561 316.552 246.835 316.661 246.191 317.095C245.548 317.523 245.113 318.162 244.886 319.011ZM256.018 327.317C254.733 326.973 253.814 326.293 253.261 325.277C252.715 324.257 252.622 323.077 252.982 321.735C253.373 320.275 254.078 319.242 255.095 318.635C256.113 318.028 257.302 317.907 258.66 318.271C259.956 318.618 260.859 319.288 261.37 320.28C261.886 321.273 261.955 322.478 261.576 323.893C261.204 325.279 260.513 326.286 259.502 326.913C258.498 327.536 257.336 327.67 256.018 327.317ZM258.244 319.415C257.35 319.175 256.56 319.291 255.876 319.763C255.193 320.229 254.708 320.997 254.422 322.067C254.146 323.097 254.191 323.979 254.558 324.715C254.925 325.45 255.55 325.936 256.433 326.173C257.333 326.414 258.102 326.307 258.739 325.853C259.382 325.401 259.848 324.637 260.136 323.561C260.427 322.475 260.408 321.572 260.079 320.853C259.756 320.135 259.144 319.656 258.244 319.415ZM266.205 330.047C264.92 329.702 264.001 329.022 263.449 328.007C262.903 326.987 262.81 325.807 263.169 324.465C263.56 323.005 264.265 321.971 265.283 321.365C266.301 320.758 267.489 320.636 268.847 321C270.143 321.348 271.047 322.017 271.557 323.009C272.074 324.003 272.142 325.207 271.763 326.622C271.392 328.009 270.7 329.016 269.689 329.643C268.685 330.265 267.524 330.4 266.205 330.047ZM268.432 322.145C267.537 321.905 266.748 322.021 266.063 322.493C265.381 322.959 264.896 323.727 264.609 324.796C264.333 325.826 264.379 326.709 264.746 327.444C265.113 328.18 265.738 328.666 266.621 328.902C267.521 329.143 268.289 329.037 268.927 328.583C269.57 328.13 270.035 327.366 270.323 326.291C270.614 325.204 270.595 324.302 270.266 323.583C269.943 322.865 269.331 322.386 268.432 322.145ZM280.03 333.533L278.077 333.009L275.359 327.804L275.325 327.795L274.206 331.972L272.814 331.599L276.262 318.729L277.654 319.102L275.468 327.26L275.502 327.269L280.22 324.266L282.045 324.755L276.889 327.868L280.03 333.533ZM285.09 323.205C284.841 323.138 284.651 322.997 284.521 322.78C284.392 322.563 284.361 322.324 284.431 322.064C284.501 321.804 284.646 321.612 284.867 321.489C285.09 321.361 285.325 321.33 285.574 321.397C285.829 321.465 286.021 321.61 286.149 321.833C286.285 322.051 286.318 322.291 286.248 322.551C286.181 322.8 286.034 322.988 285.806 323.115C285.583 323.243 285.345 323.273 285.09 323.205ZM282.848 334.288L281.456 333.915L283.785 325.221L285.178 325.594L282.848 334.288ZM292.883 336.977L291.491 336.603L292.819 331.646C293.314 329.8 292.887 328.697 291.54 328.337C290.844 328.15 290.196 328.259 289.597 328.662C289.004 329.061 288.601 329.66 288.388 330.458L287.059 335.416L285.667 335.043L287.996 326.35L289.388 326.723L289.002 328.166L289.036 328.175C289.986 327.253 291.084 326.959 292.33 327.292C293.28 327.547 293.925 328.05 294.263 328.802C294.603 329.549 294.618 330.502 294.307 331.662L292.883 336.977ZM303.121 338.974C302.266 342.166 300.31 343.352 297.254 342.533C296.178 342.245 295.294 341.79 294.599 341.167L294.972 339.775C295.806 340.58 296.667 341.102 297.555 341.34C299.695 341.914 301.069 341.063 301.679 338.787L301.934 337.837L301.9 337.827C300.94 338.759 299.795 339.047 298.465 338.691C297.384 338.401 296.616 337.783 296.16 336.836C295.711 335.884 295.661 334.758 296.01 333.456C296.406 331.979 297.074 330.899 298.015 330.217C298.962 329.537 300.052 329.362 301.286 329.692C302.458 330.006 303.201 330.709 303.515 331.8L303.549 331.809L303.872 330.603L305.264 330.977L303.121 338.974ZM302.596 335.366L302.939 334.084C303.124 333.394 303.048 332.739 302.71 332.121C302.378 331.504 301.864 331.103 301.167 330.916C300.307 330.686 299.549 330.819 298.894 331.317C298.241 331.809 297.763 332.618 297.461 333.745C297.202 334.713 297.226 335.55 297.534 336.257C297.849 336.961 298.392 337.415 299.161 337.622C299.942 337.831 300.651 337.723 301.286 337.299C301.927 336.876 302.364 336.232 302.596 335.366ZM306.187 340.742C305.927 340.672 305.728 340.518 305.591 340.282C305.46 340.046 305.43 339.799 305.499 339.538C305.569 339.278 305.72 339.079 305.951 338.94C306.189 338.798 306.439 338.762 306.699 338.831C306.965 338.903 307.165 339.06 307.301 339.302C307.437 339.539 307.471 339.787 307.401 340.048C307.331 340.308 307.178 340.507 306.941 340.643C306.704 340.78 306.453 340.813 306.187 340.742ZM309.956 341.752C309.696 341.682 309.498 341.528 309.361 341.292C309.23 341.056 309.199 340.809 309.269 340.548C309.339 340.288 309.489 340.089 309.72 339.95C309.959 339.808 310.208 339.772 310.468 339.841C310.734 339.913 310.935 340.07 311.07 340.312C311.207 340.549 311.24 340.797 311.171 341.058C311.101 341.318 310.947 341.517 310.711 341.653C310.474 341.79 310.222 341.823 309.956 341.752ZM313.726 342.762C313.465 342.692 313.267 342.538 313.13 342.302C312.999 342.066 312.968 341.819 313.038 341.558C313.108 341.298 313.258 341.099 313.49 340.96C313.728 340.818 313.977 340.782 314.238 340.851C314.504 340.923 314.704 341.08 314.839 341.322C314.976 341.559 315.01 341.807 314.94 342.068C314.87 342.328 314.717 342.527 314.48 342.663C314.243 342.8 313.992 342.833 313.726 342.762Z" fill="#006270"/>
<path d="M87.001 251.06C85.6087 251.366 84.0032 251.275 82.1845 250.788C79.8301 250.157 78.1427 248.908 77.1223 247.042C76.102 245.175 75.9153 243.034 76.5623 240.619C77.2579 238.023 78.6162 236.139 80.6371 234.966C82.6656 233.795 84.8986 233.536 87.336 234.189C88.9056 234.609 90.1477 235.181 91.0623 235.903L90.3465 238.574C89.4262 237.632 88.3057 236.984 86.9851 236.63C85.2268 236.159 83.6499 236.339 82.2544 237.17C80.8665 238.004 79.9208 239.36 79.4173 241.239C78.9381 243.027 79.0653 244.59 79.7989 245.927C80.5346 247.256 81.7325 248.144 83.3927 248.588C84.9246 248.999 86.3498 248.992 87.6683 248.569L87.001 251.06ZM94.6699 254.134C92.8814 253.654 91.596 252.732 90.8135 251.365C90.0407 249.994 89.8939 248.413 90.3731 246.625C90.8948 244.678 91.8569 243.306 93.2594 242.509C94.6694 241.714 96.3177 241.569 98.2043 242.075C100.015 242.56 101.284 243.47 102.01 244.805C102.736 246.14 102.846 247.751 102.341 249.638C101.846 251.487 100.901 252.823 99.5077 253.646C98.1238 254.465 96.5112 254.627 94.6699 254.134ZM97.4847 244.127C96.4584 243.852 95.5511 243.993 94.7629 244.55C93.9746 245.107 93.4117 246.016 93.074 247.276C92.7484 248.491 92.7935 249.53 93.2091 250.394C93.6268 251.25 94.3413 251.813 95.3525 252.084C96.3863 252.361 97.2707 252.23 98.0056 251.691C98.748 251.154 99.2891 250.252 99.6288 248.984C99.9705 247.708 99.9551 246.649 99.5827 245.805C99.2179 244.963 98.5185 244.404 97.4847 244.127ZM113.782 258.963L111.156 258.26L112.906 251.728C113.486 249.563 113.01 248.275 111.479 247.864C110.679 247.65 109.937 247.775 109.255 248.239C108.575 248.696 108.112 249.38 107.867 250.293L106.096 256.904L103.459 256.197L106.564 244.606L109.202 245.313L108.686 247.237L108.732 247.249C109.992 246.018 111.44 245.622 113.078 246.06C114.338 246.398 115.19 247.067 115.634 248.068C116.08 249.061 116.095 250.331 115.681 251.877L113.782 258.963ZM123.143 261.338C122.561 261.457 121.851 261.405 121.013 261.18C118.764 260.578 117.929 259.197 118.508 257.039L120.264 250.485L118.328 249.966L118.88 247.906L120.816 248.425L121.534 245.742L124.361 245.699L123.442 249.128L126.215 249.872L125.663 251.932L122.89 251.189L121.337 256.984C121.153 257.671 121.146 258.195 121.316 258.556C121.486 258.917 121.862 259.175 122.443 259.331C122.888 259.45 123.307 259.425 123.701 259.255L123.143 261.338ZM134.532 254.781C134.282 254.447 133.859 254.201 133.263 254.041C132.486 253.833 131.743 254.01 131.034 254.572C130.325 255.134 129.809 256.019 129.485 257.226L127.999 262.773L125.373 262.069L128.479 250.478L131.105 251.182L130.465 253.57L130.51 253.582C130.985 252.836 131.548 252.307 132.197 251.996C132.856 251.679 133.514 251.609 134.171 251.785C134.646 251.912 134.989 252.081 135.2 252.291L134.532 254.781ZM142.85 266.752L140.303 266.07L140.789 264.259L140.743 264.247C139.571 265.421 138.212 265.801 136.665 265.386C135.526 265.081 134.714 264.532 134.231 263.739C133.755 262.948 133.654 262.044 133.927 261.025C134.513 258.837 136.115 257.899 138.733 258.212L142.304 258.647C142.747 256.995 142.184 255.958 140.614 255.538C139.233 255.167 137.861 255.309 136.497 255.963L137.112 253.665C138.529 253.268 140.037 253.284 141.637 253.713C144.565 254.497 145.643 256.331 144.87 259.214L142.85 266.752ZM141.84 260.379L139.316 260.067C138.535 259.963 137.915 259.995 137.458 260.163C137.01 260.326 136.696 260.744 136.516 261.415C136.384 261.906 136.45 262.356 136.712 262.766C136.984 263.17 137.414 263.452 138.003 263.609C138.802 263.824 139.538 263.721 140.208 263.302C140.888 262.878 141.342 262.239 141.57 261.387L141.84 260.379ZM155.224 260.326C154.974 259.992 154.551 259.745 153.955 259.585C153.177 259.377 152.434 259.554 151.726 260.116C151.017 260.679 150.501 261.563 150.177 262.771L148.691 268.317L146.065 267.614L149.171 256.023L151.797 256.726L151.157 259.115L151.202 259.127C151.677 258.381 152.239 257.852 152.889 257.541C153.548 257.224 154.206 257.153 154.863 257.329C155.338 257.457 155.681 257.625 155.892 257.836L155.224 260.326ZM167.791 261.012L158.959 273.058C157.229 275.167 155.383 275.958 153.421 275.432C152.87 275.285 152.423 275.112 152.079 274.915L152.665 272.731C153.043 272.978 153.403 273.147 153.742 273.238C154.723 273.5 155.585 273.214 156.326 272.377L157.617 270.685L156.11 257.882L159.019 258.661L159.524 267.823C159.526 267.937 159.519 268.234 159.503 268.715L159.56 268.73C159.644 268.567 159.785 268.314 159.982 267.97L165.143 260.302L167.791 261.012ZM178.97 276.297C178.388 276.416 177.678 276.364 176.841 276.139C174.592 275.536 173.757 274.156 174.335 271.998L176.091 265.444L174.156 264.925L174.708 262.865L176.643 263.384L177.362 260.701L180.188 260.658L179.269 264.087L182.043 264.831L181.491 266.891L178.717 266.148L177.164 271.943C176.98 272.63 176.973 273.154 177.144 273.515C177.314 273.876 177.689 274.134 178.27 274.29C178.716 274.409 179.135 274.384 179.528 274.214L178.97 276.297ZM186.267 278.677C184.478 278.198 183.193 277.275 182.41 275.909C181.638 274.537 181.491 272.957 181.97 271.168C182.492 269.221 183.454 267.849 184.856 267.052C186.266 266.257 187.915 266.113 189.801 266.618C191.612 267.104 192.881 268.014 193.607 269.349C194.333 270.684 194.443 272.294 193.938 274.181C193.443 276.03 192.498 277.366 191.105 278.19C189.721 279.008 188.108 279.17 186.267 278.677ZM189.082 268.67C188.055 268.395 187.148 268.536 186.36 269.093C185.572 269.65 185.009 270.559 184.671 271.819C184.345 273.034 184.39 274.073 184.806 274.937C185.224 275.793 185.938 276.357 186.949 276.627C187.983 276.904 188.868 276.773 189.602 276.234C190.345 275.697 190.886 274.795 191.226 273.527C191.567 272.252 191.552 271.192 191.18 270.348C190.815 269.506 190.115 268.947 189.082 268.67ZM204.569 281.458L204.524 281.446L202.637 288.486L200.011 287.783L204.546 270.86L207.172 271.564L206.626 273.601L206.671 273.613C207.982 272.315 209.501 271.897 211.229 272.36C212.7 272.754 213.709 273.578 214.255 274.833C214.8 276.087 214.839 277.586 214.372 279.329C213.855 281.261 212.976 282.683 211.736 283.597C210.497 284.51 209.073 284.751 207.466 284.321C205.987 283.924 205.021 282.97 204.569 281.458ZM205.727 276.867L205.341 278.304C205.115 279.149 205.191 279.938 205.569 280.67C205.954 281.404 206.562 281.883 207.392 282.105C208.366 282.366 209.229 282.193 209.982 281.586C210.745 280.973 211.308 279.988 211.672 278.63C211.977 277.49 211.956 276.53 211.607 275.749C211.268 274.962 210.656 274.451 209.774 274.214C208.838 273.964 207.994 274.093 207.243 274.604C206.499 275.116 205.993 275.87 205.727 276.867ZM220.474 287.843C218.686 287.364 217.4 286.441 216.618 285.075C215.845 283.703 215.698 282.123 216.177 280.334C216.699 278.387 217.661 277.015 219.064 276.218C220.474 275.423 222.122 275.279 224.009 275.784C225.82 276.269 227.088 277.18 227.814 278.515C228.54 279.849 228.651 281.46 228.145 283.347C227.65 285.196 226.705 286.532 225.312 287.356C223.928 288.174 222.315 288.336 220.474 287.843ZM223.289 277.836C222.263 277.561 221.355 277.702 220.567 278.259C219.779 278.816 219.216 279.725 218.878 280.985C218.553 282.2 218.598 283.239 219.013 284.103C219.431 284.959 220.146 285.522 221.157 285.793C222.191 286.07 223.075 285.939 223.81 285.4C224.552 284.863 225.093 283.961 225.433 282.693C225.775 281.418 225.759 280.358 225.387 279.514C225.022 278.672 224.323 278.113 223.289 277.836ZM232.392 288.913L232.347 288.901L230.46 295.942L227.834 295.238L232.369 278.315L234.995 279.019L234.449 281.057L234.494 281.069C235.805 279.77 237.324 279.352 239.052 279.815C240.524 280.209 241.532 281.034 242.078 282.288C242.623 283.542 242.662 285.041 242.195 286.784C241.678 288.716 240.799 290.138 239.56 291.052C238.32 291.965 236.896 292.207 235.289 291.776C233.81 291.38 232.844 290.425 232.392 288.913ZM233.55 284.322L233.165 285.759C232.938 286.605 233.014 287.393 233.392 288.125C233.778 288.86 234.385 289.338 235.216 289.56C236.189 289.821 237.052 289.648 237.805 289.041C238.568 288.429 239.131 287.443 239.495 286.085C239.801 284.945 239.779 283.985 239.43 283.204C239.091 282.418 238.48 281.906 237.597 281.67C236.661 281.419 235.817 281.549 235.066 282.059C234.322 282.571 233.817 283.326 233.55 284.322ZM253.339 296.358L250.713 295.654L251.205 293.82L251.159 293.808C250.021 295.008 248.648 295.392 247.041 294.961C244.302 294.227 243.373 292.215 244.254 288.925L246.111 281.997L248.737 282.701L246.953 289.357C246.395 291.44 246.92 292.697 248.527 293.127C249.304 293.335 250.019 293.22 250.671 292.78C251.33 292.341 251.784 291.658 252.033 290.73L253.819 284.063L256.445 284.767L253.339 296.358ZM259.407 297.983L256.769 297.277L261.367 280.117L264.005 280.823L259.407 297.983ZM271.733 301.286L269.187 300.604L269.672 298.793L269.627 298.781C268.455 299.955 267.095 300.335 265.548 299.92C264.409 299.615 263.597 299.066 263.114 298.273C262.639 297.483 262.537 296.578 262.81 295.559C263.397 293.371 264.999 292.433 267.616 292.746L271.188 293.181C271.63 291.529 271.067 290.492 269.497 290.072C268.116 289.702 266.744 289.843 265.38 290.497L265.996 288.199C267.412 287.802 268.92 287.818 270.52 288.247C273.448 289.031 274.526 290.865 273.753 293.748L271.733 301.286ZM270.724 294.913L268.199 294.601C267.418 294.497 266.799 294.529 266.341 294.698C265.893 294.861 265.579 295.278 265.399 295.949C265.268 296.44 265.333 296.89 265.595 297.3C265.867 297.705 266.297 297.986 266.886 298.143C267.686 298.358 268.421 298.255 269.091 297.837C269.771 297.412 270.225 296.774 270.454 295.921L270.724 294.913ZM284.107 294.86C283.857 294.526 283.434 294.279 282.838 294.119C282.061 293.911 281.318 294.088 280.609 294.65C279.9 295.213 279.384 296.098 279.061 297.305L277.574 302.851L274.948 302.148L278.054 290.557L280.68 291.26L280.04 293.649L280.085 293.661C280.56 292.915 281.123 292.386 281.772 292.075C282.431 291.758 283.089 291.688 283.746 291.863C284.221 291.991 284.564 292.16 284.775 292.37L284.107 294.86ZM293.033 305.198L292.988 305.186L292.539 306.861L289.913 306.158L294.511 288.997L297.137 289.701L295.099 297.308L295.144 297.32C296.454 296.021 297.974 295.603 299.702 296.066C301.166 296.458 302.169 297.285 302.713 298.547C303.266 299.803 303.309 301.303 302.842 303.046C302.322 304.986 301.442 306.416 300.2 307.337C298.96 308.25 297.537 308.492 295.93 308.061C294.42 307.657 293.455 306.702 293.033 305.198ZM294.199 300.573L293.814 302.01C293.588 302.856 293.663 303.644 294.042 304.376C294.427 305.111 295.035 305.589 295.865 305.811C296.839 306.072 297.702 305.899 298.455 305.292C299.218 304.68 299.781 303.694 300.145 302.336C300.45 301.196 300.428 300.236 300.08 299.455C299.74 298.669 299.129 298.157 298.246 297.921C297.311 297.67 296.467 297.8 295.716 298.31C294.972 298.822 294.466 299.577 294.199 300.573ZM315.056 307.447L307.156 305.33C306.899 306.41 307.005 307.324 307.476 308.073C307.954 308.824 308.744 309.347 309.846 309.642C311.084 309.974 312.318 309.909 313.55 309.446L312.983 311.563C311.749 311.944 310.264 311.902 308.528 311.437C306.823 310.98 305.624 310.096 304.931 308.787C304.248 307.471 304.163 305.859 304.674 303.95C305.158 302.146 306.083 300.821 307.45 299.974C308.827 299.122 310.308 298.908 311.893 299.333C313.477 299.757 314.567 300.595 315.162 301.846C315.757 303.098 315.812 304.629 315.326 306.44L315.056 307.447ZM313.018 304.912C313.264 303.966 313.237 303.175 312.939 302.537C312.643 301.891 312.11 301.465 311.34 301.259C310.585 301.057 309.87 301.16 309.194 301.57C308.526 301.981 308.012 302.616 307.653 303.474L313.018 304.912ZM318.834 313.907L316.196 313.2L320.794 296.04L323.432 296.747L318.834 313.907ZM327.346 301.156C326.916 301.041 326.583 300.802 326.349 300.44C326.122 300.08 326.066 299.685 326.181 299.255C326.296 298.824 326.543 298.506 326.922 298.301C327.308 298.097 327.716 298.052 328.147 298.168C328.592 298.287 328.931 298.531 329.163 298.901C329.396 299.271 329.454 299.671 329.339 300.101C329.23 300.508 328.981 300.818 328.593 301.029C328.207 301.233 327.791 301.275 327.346 301.156ZM324.89 315.53L322.263 314.826L325.369 303.235L327.995 303.938L324.89 315.53ZM339.506 313.999L331.606 311.882C331.349 312.961 331.455 313.876 331.926 314.625C332.404 315.376 333.194 315.899 334.296 316.194C335.534 316.525 336.768 316.46 338 315.997L337.433 318.114C336.199 318.495 334.714 318.453 332.978 317.988C331.273 317.531 330.074 316.648 329.381 315.338C328.698 314.023 328.613 312.41 329.124 310.501C329.608 308.698 330.533 307.372 331.9 306.526C333.277 305.673 334.758 305.459 336.343 305.884C337.927 306.309 339.017 307.147 339.612 308.398C340.207 309.649 340.262 311.18 339.776 312.991L339.506 313.999ZM337.468 311.463C337.714 310.518 337.687 309.726 337.389 309.088C337.093 308.443 336.56 308.017 335.79 307.81C335.035 307.608 334.32 307.712 333.644 308.121C332.976 308.533 332.462 309.167 332.103 310.025L337.468 311.463ZM351.225 306.487C350.925 306.188 350.549 305.978 350.096 305.857C348.82 305.515 347.99 306.065 347.603 307.506L347.182 309.079L349.876 309.801L349.324 311.861L346.641 311.143L344.087 320.674L341.461 319.97L344.015 310.439L342.034 309.908L342.586 307.848L344.567 308.379L345.071 306.5C345.398 305.277 346.056 304.422 347.044 303.935C348.034 303.44 349.129 303.353 350.329 303.675C350.978 303.848 351.472 304.058 351.81 304.302L351.225 306.487ZM349.658 322.433C349.205 322.312 348.86 322.061 348.621 321.682C348.385 321.295 348.323 320.895 348.434 320.48C348.547 320.057 348.803 319.737 349.201 319.52C349.599 319.303 350.024 319.256 350.477 319.377C350.937 319.5 351.285 319.755 351.521 320.142C351.765 320.531 351.83 320.937 351.717 321.359C351.606 321.774 351.347 322.089 350.942 322.304C350.546 322.513 350.118 322.556 349.658 322.433Z" fill="#2A3950"/>
<g filter="url(#filter1_d_9_10246)">
<rect x="129.142" y="40.4949" width="310" height="180" rx="20" transform="rotate(15 129.142 40.4949)" fill="#2A3950"/>
<rect x="128.435" y="39.2701" width="312" height="182" rx="21" transform="rotate(15 128.435 39.2701)" stroke="white" stroke-width="2"/>
</g>
<mask id="mask0_9_10246" style="mask-type:alpha" maskUnits="userSpaceOnUse" x="87" y="44" width="338" height="247">
<rect x="129.142" y="40.4949" width="310" height="180" rx="20" transform="rotate(15 129.142 40.4949)" fill="#2A3950"/>
</mask>
<g mask="url(#mask0_9_10246)">
<path d="M198.246 -32.7779L405.764 22.8265C431.167 29.6331 446.33 55.8958 439.523 81.2982L383.919 288.817C377.112 314.219 350.849 329.382 325.447 322.575L117.929 266.971C92.6309 259.774 77.4681 233.511 84.2747 208.108L139.774 0.980798C146.581 -24.4216 172.844 -39.5844 198.246 -32.7779Z" fill="#BAF5FF"/>
<path d="M405.1 208.206L429.499 117.148C405.604 114.096 395.022 136.392 395.022 136.392C395.022 136.392 390.779 131.905 379.962 133.195C379.962 133.195 382.733 125.979 395.448 128.548C396.886 124.745 399.678 122.142 399.678 122.142C325.363 88.4069 300.596 160.517 300.596 160.517C288.404 155.994 282.031 167.271 282.031 167.271C282.031 167.271 360.29 194.105 405.1 208.206Z" fill="#CFF8FF"/>
<path d="M122.601 65.0729L108.359 118.223L249.05 155.92C249.05 155.92 248.038 151.88 244.061 143.274C240.189 134.278 223.391 123.495 203.585 122.376C183.78 121.258 169.943 97.8636 164.898 88.5534C159.462 79.1384 135.365 70.5873 122.601 65.0729Z" fill="white"/>
<path d="M122.601 65.0729L108.359 118.223L242.797 154.245C242.797 154.245 241.785 150.204 237.808 141.599C233.936 132.603 217.138 121.819 197.333 120.701C177.527 119.582 164.443 98.0655 158.645 86.8779C153.963 79.3403 135.365 70.5873 122.601 65.0729ZM249.05 155.92C249.05 155.92 255.338 149.647 259.065 149.808C262.896 149.578 273.602 154.96 273.602 154.96L277.523 166.901L249.05 155.92Z" fill="#6AA4D9"/>
<path d="M122.601 65.0729L117.156 85.3948C127.993 88.7177 142.349 92.983 145.684 93.0391C149.411 93.2 154.681 89.1666 157.968 86.2777C154.067 78.9495 135.079 70.0917 122.601 65.0729Z" fill="#87B9E8"/>
<path d="M118.033 266.58L325.552 322.184C350.954 328.991 377.217 313.828 384.024 288.426L408.737 196.195L108.988 115.878L84.2747 208.108C77.4682 233.511 92.631 259.773 118.033 266.58Z" fill="#57DBF2"/>
<path d="M118.033 266.58L325.552 322.185C350.954 328.991 377.217 313.828 384.024 288.426L392.82 255.598C365.261 242.769 306.186 236.573 289.563 232.957C269.422 228.398 275.703 228.406 257.217 212.981C238.732 197.556 173.682 196.462 168.42 194.214C163.158 191.966 216.044 186.869 148.141 174.539C125.837 170.238 109.242 164.954 97.6505 159.753L84.6656 208.213C77.4683 233.511 92.6311 259.774 118.033 266.58Z" fill="white"/>
<path d="M362.621 183.839L244.598 152.214L151.977 127.397L108.988 115.878L104.59 132.292C107.325 133.025 110.452 133.862 113.474 135.091C144.501 145.918 187.88 157.541 155.583 140.51C113.077 117.811 255.638 161.037 258.764 161.874C288.542 171.11 244.764 165.663 233.326 163.017C221.888 160.371 204.56 157.822 234.072 171.175C263.48 184.919 244.065 183.905 189.296 172.581C134.526 161.256 206.169 184.642 267.603 202.359C329.036 220.077 344.724 220.93 312.665 201.449C280.501 182.359 249.446 173.2 367.707 202.375C421.848 216.044 400.78 202.441 362.621 183.839ZM359.416 205.18C371.141 208.321 380.492 212.502 379.863 214.847C379.235 217.192 369.046 216.137 357.322 212.996C345.598 209.854 336.246 205.673 336.875 203.328C337.503 200.984 347.692 202.038 359.416 205.18ZM208.021 162.1C212.71 163.357 216.018 165.081 215.704 166.253C215.39 167.426 211.663 167.265 206.974 166.008C202.284 164.752 198.976 163.028 199.29 161.855C199.5 161.074 203.331 160.844 208.021 162.1Z" fill="#88FCFC"/>
<path d="M121.548 139.349C121.548 139.349 149.734 149.834 165.841 149.123C165.841 149.123 151.806 160.861 121.548 139.349ZM264.177 190.133L315.763 203.955C315.763 203.955 288.525 207.128 264.177 190.133ZM323.727 191.429L394.854 210.487C395.245 210.592 362.795 191.006 323.727 191.429ZM172.521 142.955L183.073 145.782C183.073 145.782 178.705 137.072 172.521 142.955Z" fill="white"/>
<path d="M118.033 266.58L325.551 322.185C350.954 328.991 377.217 313.829 384.023 288.426L386.327 279.828C365.956 271.438 324.148 253.952 298.229 242.819C268.221 229.752 233.174 224.55 204.931 217.401C206.941 214.589 208.56 211.672 206.216 211.043C202.021 209.501 200.269 214.476 200.269 214.476C200.269 214.476 201.373 207.232 197.15 207.358C194.596 207.511 194.826 211.342 195.161 214.783C193.598 214.364 192.034 213.945 190.576 213.136C169.891 205.918 122.332 180.189 95.7932 165.12L84.2744 208.109C77.4678 233.511 92.6306 259.774 118.033 266.58Z" fill="#E3D24F"/>
<path d="M240.132 225.157C240.132 225.157 285.312 234.75 303.073 246.63C303.073 246.63 299.471 250.691 281.055 242.824C262.638 234.957 240.132 225.157 240.132 225.157Z" fill="#F2E585"/>
<path d="M282.172 310.561L325.161 322.08C350.564 328.886 376.826 313.724 383.633 288.321L385.937 279.723L372.391 274C378.818 282.842 376.57 288.104 356.22 284.327C319.037 277.715 295.587 294.888 282.172 310.561Z" fill="#C4A337"/>
<path d="M118.033 266.58L185.643 284.696C188.253 281.207 194.457 279.937 200.71 281.613C206.963 283.288 211.702 287.49 212.218 291.817L221.206 294.225C235.195 256.087 213.979 257.104 178.124 229.905C164.949 219.672 163.889 212.687 167.7 207.844C146.596 202.189 129.924 195.627 116.197 189.017C117.349 184.718 117.462 178.046 107.559 177.487C109.625 171.339 109.765 162.999 97.783 157.694L92.8613 176.062L91.9188 179.58L84.1698 208.499C77.468 233.511 92.6308 259.774 118.033 266.58Z" fill="#C4A337"/>
<path d="M375.523 102.371C365.83 140.827 344.087 231.095 330.689 323.295L344.375 326.962C351.503 328.872 358.954 328.436 365.436 325.916C365.797 325.708 366.158 325.501 366.519 325.294C364.997 276.23 378.281 173.052 395.69 108.079L375.523 102.371Z" fill="#6E284B"/>
<path d="M331.468 323.504L344.152 326.903C351.358 328.834 358.887 328.411 365.431 325.895C365.796 325.688 366.16 325.481 366.525 325.273C365.629 300.941 368.682 263.028 373.786 223.226C365.261 243.509 358.778 257.325 359.374 229.733C360.521 198.934 341.37 281.937 331.468 323.504ZM365.586 214.624C366.739 214.933 367.511 216.665 367.053 218.372C366.596 220.079 365.061 221.193 363.908 220.884C362.755 220.575 361.983 218.843 362.441 217.136C362.898 215.429 364.433 214.315 365.586 214.624Z" fill="#4A283E"/>
<path d="M370.654 120.543C359.678 164.97 342.057 243.447 330.58 323.266L331.158 323.421C333.95 308.379 336.893 292.771 340.201 276.958C355.746 285.981 364.836 277.485 364.836 277.485C352.93 279.154 343.94 273.405 341.355 271.497C344.511 256.25 347.956 241.08 351.326 226.194C362.352 231.274 371.2 224.839 371.2 224.839C363.126 227.23 356.206 224.161 352.464 221.944C355.606 207.907 358.885 194.515 362.012 181.689C370.514 185.789 376.793 182.006 376.793 182.006C370.269 182.079 365.372 179.553 362.999 178.006C366.43 164.047 369.632 150.937 372.456 139.245C379.391 141.103 387.584 134.796 387.584 134.796C381.548 136.519 376.773 135.847 373.595 134.995C375.189 129.046 376.342 123.585 377.708 118.486C375.093 119 372.767 119.591 370.654 120.543Z" fill="#A63F73"/>
<path d="M302.182 137.589C302.182 137.589 306.077 107.06 335.032 91.5218L384.72 104.836L385.152 108.936L334.215 126.554L329.11 114.764C329.11 114.764 329.249 123.384 329.527 128.057L302.182 137.589Z" fill="#4A283E"/>
<path d="M302.187 137.591C302.187 137.591 306.001 107.039 335.429 91.6281L336.886 92.0185C321.536 103.845 314.73 122.253 311.726 134.629L302.187 137.591Z" fill="#6E284B"/>
<path d="M387.114 105.477L413.575 135.432L424.615 127.259C420.156 118.843 412.457 112.268 402.49 109.597L387.114 105.477ZM424.825 127.616C423.654 129.709 419.571 135.835 417.303 139.74L427.576 151.518C429.548 143.021 428.371 134.884 424.825 127.616Z" fill="#4A283E"/>
<path d="M274.469 274.186C278.385 268.953 285.141 264.061 294.959 269.624C294.959 269.624 308.223 227.941 364.177 250.473C381.631 257.244 390.43 265.047 394.617 272.871C383.547 289.172 362.791 297.852 342.469 292.407L274.469 274.186ZM242.032 265.495L265.48 271.778C266.765 265.42 262.941 259.369 256.688 257.694C250.435 256.018 244.098 259.347 242.032 265.495ZM404.292 246.143C397.125 246.317 390.703 254.649 397.151 268.105C398.77 265.187 399.999 262.166 400.836 259.039L404.292 246.143Z" fill="#4A283E"/>
<path d="M387.665 54.418C387.665 54.418 380.797 65.9814 354.766 61.5197C354.376 61.4149 375.806 76.7912 387.665 54.418Z" fill="#4A283E"/>
<path d="M381.743 179.613C381.743 179.613 375.18 186.552 358.027 179.256C358.102 178.977 369.865 193.224 381.743 179.613Z" fill="#4A283E"/>
<path d="M374.219 223.149C374.219 223.149 366.369 231.504 345.35 222.703C345.35 222.703 360.132 239.658 374.219 223.149Z" fill="#4A283E"/>
<path d="M358.45 250.996C352.999 254.143 339.962 259.027 316.151 250.972C316.151 250.972 338.642 273.334 358.421 252.664L358.45 250.996Z" fill="#4A283E"/>
<path d="M308.196 206.153C316.598 220.132 326.136 242.375 330.139 272.768L329.357 272.559C325.249 242.556 315.607 220.704 307.596 206.83L308.196 206.153Z" fill="#4A283E"/>
<path d="M325.529 249.333C325.529 249.333 328.134 228.669 335.607 233.603C343.186 238.147 332.2 249.445 325.529 249.333Z" fill="#4A283E"/>
<path d="M323.582 242.528C323.582 242.528 308.118 228.332 306.205 237.034C304.578 246.232 323.525 245.864 323.582 242.528Z" fill="#4A283E"/>
<path d="M320.596 233.351C320.596 233.351 321.791 214.822 328.978 219.261C336.166 223.7 328.831 233.882 320.596 233.351Z" fill="#4A283E"/>
<path d="M318.335 227.719C318.335 227.719 307.895 218.219 304.552 224.444C301.209 230.669 317.546 233.79 318.335 227.719Z" fill="#4A283E"/>
<path d="M314.853 218.827C314.853 218.827 313.877 206.837 319.949 207.626C325.916 208.806 321.602 220.216 314.853 218.827Z" fill="#4A283E"/>
<path d="M311.42 212.881C311.42 212.881 301.448 204.764 300.268 210.73C298.697 216.593 311.441 217.494 311.42 212.881Z" fill="#4A283E"/>
<path d="M329.156 267.059C329.156 267.059 331.761 246.395 339.235 251.33C346.814 255.874 335.828 267.172 329.156 267.059Z" fill="#4A283E"/>
<path d="M327.991 260.464C327.991 260.464 312.527 246.268 310.614 254.97C308.597 264.064 327.544 263.696 327.991 260.464Z" fill="#4A283E"/>
<path d="M197.418 256.66C195.898 242.011 184.705 230.635 167.377 228.086C169.338 222.329 174.789 219.182 174.789 219.182C168.927 217.611 165.277 218.727 162.981 221.044C168.147 193.946 121.118 183.438 103.419 185.398C103.419 185.398 106.729 163.666 87.5029 157.258L82.2671 176.798C75.4605 202.201 90.6233 228.463 116.026 235.27L197.314 257.051L197.418 256.66Z" fill="#6B6B1E"/>
<path d="M82.7454 223.197C83.8186 241.077 94.9275 257.457 111.885 264.514C114.887 261.13 120.233 258.373 129.326 260.391C139.592 262.723 139.689 268.613 143.436 273.387L118.034 266.58C116.08 266.057 114.516 265.638 112.667 264.724C117.944 254.409 120.416 235.804 82.7454 223.197ZM165.712 279.356L184.471 284.382C183.536 281.618 178.77 279.085 165.712 279.356Z" fill="#4A283E"/>
<path d="M163.725 165.116C149.46 173.021 130.078 187.515 111.415 211.835L112.196 212.044C130.755 188.115 150.032 174.013 163.906 166.002L163.725 165.116Z" fill="#6B6B1E"/>
<path d="M127.517 193.949C127.517 193.949 135.593 174.751 126.653 175.288C117.818 175.433 121.292 190.606 127.517 193.949Z" fill="#6B6B1E"/>
<path d="M132.214 188.925C132.214 188.925 152.704 184.363 150.01 192.856C147.211 201.739 130.986 191.947 132.214 188.925Z" fill="#6B6B1E"/>
<path d="M139.78 182.575C139.78 182.575 148.009 165.931 139.565 166.181C131.121 166.432 132.383 178.917 139.78 182.575Z" fill="#6B6B1E"/>
<path d="M144.162 178.723C144.162 178.723 157.953 175.716 157.736 182.779C157.624 189.45 142.201 184.48 144.162 178.723Z" fill="#6B6B1E"/>
<path d="M152.014 172.868C152.014 172.868 158.854 162.973 153.202 160.62C147.444 158.659 145.475 170.697 152.014 172.868Z" fill="#6B6B1E"/>
<path d="M158.065 169.044C158.065 169.044 170.76 167.001 168.798 172.758C167.227 178.62 155.245 173.315 158.065 169.044Z" fill="#6B6B1E"/>
<path d="M115.512 207.487C115.512 207.487 123.588 188.289 114.648 188.826C105.813 188.971 109.287 204.144 115.512 207.487Z" fill="#6B6B1E"/>
<path d="M119.818 202.358C119.818 202.358 140.309 197.796 137.614 206.289C134.424 215.068 118.59 205.38 119.818 202.358Z" fill="#6B6B1E"/>
<path d="M184.179 266.712C188.659 268.75 191.548 272.037 190.529 274.277C189.51 276.518 185.183 277.034 180.703 274.995C176.223 272.957 173.334 269.67 174.353 267.43C174.981 265.085 179.699 264.674 184.179 266.712ZM171.282 263.256C172.455 263.57 173.313 265.057 173.104 265.838C172.894 266.62 171.617 266.697 170.054 266.278C168.882 265.964 168.023 264.477 168.233 263.696C168.442 262.914 169.719 262.837 171.282 263.256Z" fill="#8C8C2F"/>
</g>
<defs>
<filter id="filter0_d_9_10246" x="0.597168" y="0.48999" width="481.987" height="466.43" filterUnits="userSpaceOnUse" color-interpolation-filters="sRGB">
<feFlood flood-opacity="0" result="BackgroundImageFix"/>
<feColorMatrix in="SourceAlpha" type="matrix" values="0 0 0 0 0 0 0 0 0 0 0 0 0 0 0 0 0 0 127 0" result="hardAlpha"/>
<feOffset dy="14"/>
<feGaussianBlur stdDeviation="17"/>
<feComposite in2="hardAlpha" operator="out"/>
<feColorMatrix type="matrix" values="0 0 0 0 0 0 0 0 0 0 0 0 0 0 0 0 0 0 0.2 0"/>
<feBlend mode="normal" in2="BackgroundImageFix" result="effect1_dropShadow_9_10246"/>
<feBlend mode="normal" in="SourceGraphic" in2="effect1_dropShadow_9_10246" result="shape"/>
</filter>
<filter id="filter1_d_9_10246" x="65.0442" y="30.9843" width="381.045" height="289.122" filterUnits="userSpaceOnUse" color-interpolation-filters="sRGB">
<feFlood flood-opacity="0" result="BackgroundImageFix"/>
<feColorMatrix in="SourceAlpha" type="matrix" values="0 0 0 0 0 0 0 0 0 0 0 0 0 0 0 0 0 0 127 0" result="hardAlpha"/>
<feOffset dy="8"/>
<feGaussianBlur stdDeviation="10"/>
<feComposite in2="hardAlpha" operator="out"/>
<feColorMatrix type="matrix" values="0 0 0 0 0 0 0 0 0 0 0 0 0 0 0 0 0 0 0.15 0"/>
<feBlend mode="normal" in2="BackgroundImageFix" result="effect1_dropShadow_9_10246"/>
<feBlend mode="normal" in="SourceGraphic" in2="effect1_dropShadow_9_10246" result="shape"/>
</filter>
</defs>
</svg>
